<svg xmlns="http://www.w3.org/2000/svg" viewBox="0 0 173.06 184.09"><defs><style>.cls-1{fill:#e45f5d;}</style></defs><g id="Calque_2" data-name="Calque 2"><g id="Calque_1-2" data-name="Calque 1"><path class="cls-1" d="M172.58,39.79c-.3-1.7-2.1-3.1-3.2-4.7-1.4,1.3-3.9,2.4-4.1,3.8-.5,3.5-2.5,3.8-5.1,3.7s-5.6.5-5.5-3.7c.1-4-3.1-3.4-5.3-3.2-2.6.3-6.9-2-7.4,2.7s-3.4,4-6.4,4.2c-3.4.2-4.1-1.4-4.2-4.4,0-1.1-2-2.8-3-2.8-1.5,0-3.9.9-4.4,2.1-2.3,5.6-.1,13.6,5.1,16.9s7.2,7.3,6.4,13.2a32.1,32.1,0,0,0,0,6.2c.2,3.5-1.4,4.6-4.8,4.6-6.8-.1-13.6-.2-20.4,0-4.2.2-5-1.6-5-5.4.2-13.1.2-26.1,0-39.2-.1-4.3.6-8,4.3-10.4,8.5-5.6,7.8-13.7,6.7-22.5-4,.1-9.1-3.1-9.6,4.6,0,.8-1.8,1.9-2.8,2-3.1.3-6.3.1-9.9.1,1.1-7.1-2.6-8.1-7.6-7.4-2.9.4-6.8-1.5-7.2,3.8-.4,5.6-4.9,3.2-7.9,3.6s-5.7.2-5.7-4.1c0-1-2.3-2.7-3.6-2.8-1.7-.1-4.5.6-5.1,1.8-2.3,4.6.4,14.2,4,18.2,2.6,3,6.4,6.5,6.6,9.9.7,14.4.3,28.8.3,43.2,0,3.5-1.6,4.6-4.9,4.5-5.5-.1-11,.1-16.5-.1-9.2-.2-9.1,1.9-8.9-9.3.1-4.5-1.4-9.8,4.1-12.6,7.3-3.7,8.7-9.9,7.3-17.2-.3-1.5-2.1-3.8-3.2-3.8-1.3-.1-3.8,1.8-3.9,3.1-.4,3.3-2,3.7-4.8,4.1-5.4.7-6.4-2.3-6.4-7.1a64.25,64.25,0,0,0-7.6.1c-1.5.2-4.2.9-4.3,1.6-.7,8.5-6.1,5.1-10.5,5.2-.2-1.7.1-3.2-.5-4.2-.7-1.2-2.3-2.7-3.4-2.6-1.4.1-3.8,1.6-3.9,2.7-.5,6.5-1.7,13.4,5.9,17.2,4.4,2.2,5.5,5.9,5.5,10.8-.2,37.3-.1,74.6-.2,111.9,0,4.4,1.2,6,5.7,6,16.5-.2,32.9-.2,49.4,0,4.1,0,5.2-1.5,5.1-5.4-.2-6.8.1-13.6-.1-20.5-.3-8.2,3.2-14.6,9.1-20,3.7-3.4,7.5-3.4,11.2-.4,5.7,4.6,9.1,10.6,9.2,18.1.1,7.2.3,14.4-.1,21.6-.3,5,1.4,6.6,6.4,6.5,15.7-.3,31.4-.3,47.1-.1,5,.1,6.8-1,6.8-6.5-.2-37.5-.1-75-.2-112.5,0-3.8.9-6.9,4.2-8.5C172.48,52.79,174,46.89,172.58,39.79ZM48.91,131.23H28.21c0-9.5-.5-18.8.2-27.9.4-5.9,6.7-11.9,10.8-11.7,3.6.2,9.3,5.9,9.6,11.5C49.41,112.23,48.91,121.43,48.91,131.23Zm92.9.2c-5.7.2-11.5.1-18.1.1,0-9.5-.1-18.2,0-26.8a9.38,9.38,0,0,1,1.3-4.3c2.1-4,4.5-9.6,9.3-8.4,3.8,1,8.8,5.5,9.4,9.2,1.6,9.2,1.2,18.7,1.3,28.1C145,130,143,131.43,141.81,131.43Z"/></g></g></svg>