<?xml version="1.0" encoding="utf-8"?>
<!-- Generator: Adobe Illustrator 25.0.1, SVG Export Plug-In . SVG Version: 6.00 Build 0)  -->
<svg version="1.1" id="Calque_1" xmlns="http://www.w3.org/2000/svg" xmlns:xlink="http://www.w3.org/1999/xlink" x="0px" y="0px"
	 viewBox="0 0 174.1 185.1" style="enable-background:new 0 0 174.1 185.1;" xml:space="preserve">
<style type="text/css">
	.st0{opacity:0.37;}
	.st1{fill:none;stroke:#E45F5D;stroke-miterlimit:10;}
</style>
<g id="Calque_2_1_" class="st0">
	<g id="Calque_1-2">
		<path class="st1" d="M173.1,40.3c-0.3-1.7-2.1-3.1-3.2-4.7c-1.4,1.3-3.9,2.4-4.1,3.8c-0.5,3.5-2.5,3.8-5.1,3.7s-5.6,0.5-5.5-3.7
			c0.1-4-3.1-3.4-5.3-3.2c-2.6,0.3-6.9-2-7.4,2.7s-3.4,4-6.4,4.2c-3.4,0.2-4.1-1.4-4.2-4.4c0-1.1-2-2.8-3-2.8
			c-1.5,0-3.9,0.9-4.4,2.1c-2.3,5.6-0.1,13.6,5.1,16.9s7.2,7.3,6.4,13.2c-0.2,2.1-0.2,4.1,0,6.2c0.2,3.5-1.4,4.6-4.8,4.6
			c-6.8-0.1-13.6-0.2-20.4,0c-4.2,0.2-5-1.6-5-5.4c0.2-13.1,0.2-26.1,0-39.2c-0.1-4.3,0.6-8,4.3-10.4c8.5-5.6,7.8-13.7,6.7-22.5
			c-4,0.1-9.1-3.1-9.6,4.6c0,0.8-1.8,1.9-2.8,2c-3.1,0.3-6.3,0.1-9.9,0.1C95.6,1,91.9,0,86.9,0.7c-2.9,0.4-6.8-1.5-7.2,3.8
			c-0.4,5.6-4.9,3.2-7.9,3.6S66.1,8.3,66.1,4c0-1-2.3-2.7-3.6-2.8C60.8,1.1,58,1.8,57.4,3c-2.3,4.6,0.4,14.2,4,18.2
			c2.6,3,6.4,6.5,6.6,9.9c0.7,14.4,0.3,28.8,0.3,43.2c0,3.5-1.6,4.6-4.9,4.5c-5.5-0.1-11,0.1-16.5-0.1c-9.2-0.2-9.1,1.9-8.9-9.3
			c0.1-4.5-1.4-9.8,4.1-12.6c7.3-3.7,8.7-9.9,7.3-17.2c-0.3-1.5-2.1-3.8-3.2-3.8c-1.3-0.1-3.8,1.8-3.9,3.1c-0.4,3.3-2,3.7-4.8,4.1
			c-5.4,0.7-6.4-2.3-6.4-7.1c-2.5-0.1-5.1-0.1-7.6,0.1c-1.5,0.2-4.2,0.9-4.3,1.6c-0.7,8.5-6.1,5.1-10.5,5.2
			c-0.2-1.7,0.1-3.2-0.5-4.2c-0.7-1.2-2.3-2.7-3.4-2.6c-1.4,0.1-3.8,1.6-3.9,2.7c-0.5,6.5-1.7,13.4,5.9,17.2
			c4.4,2.2,5.5,5.9,5.5,10.8c-0.2,37.3-0.1,74.6-0.2,111.9c0,4.4,1.2,6,5.7,6c16.5-0.2,32.9-0.2,49.4,0c4.1,0,5.2-1.5,5.1-5.4
			c-0.2-6.8,0.1-13.6-0.1-20.5c-0.3-8.2,3.2-14.6,9.1-20c3.7-3.4,7.5-3.4,11.2-0.4c5.7,4.6,9.1,10.6,9.2,18.1
			c0.1,7.2,0.3,14.4-0.1,21.6c-0.3,5,1.4,6.6,6.4,6.5c15.7-0.3,31.4-0.3,47.1-0.1c5,0.1,6.8-1,6.8-6.5c-0.2-37.5-0.1-75-0.2-112.5
			c0-3.8,0.9-6.9,4.2-8.5C173,53.3,174.5,47.4,173.1,40.3z M49.4,131.7H28.7c0-9.5-0.5-18.8,0.2-27.9c0.4-5.9,6.7-11.9,10.8-11.7
			c3.6,0.2,9.3,5.9,9.6,11.5C49.9,112.7,49.4,121.9,49.4,131.7z M142.3,131.9c-5.7,0.2-11.5,0.1-18.1,0.1c0-9.5-0.1-18.2,0-26.8
			c0.1-1.5,0.5-3,1.3-4.3c2.1-4,4.5-9.6,9.3-8.4c3.8,1,8.8,5.5,9.4,9.2c1.6,9.2,1.2,18.7,1.3,28.1
			C145.5,130.5,143.5,131.9,142.3,131.9z"/>
	</g>
</g>
</svg>
