<?xml version="1.0" encoding="utf-8"?>
<!-- Generator: Adobe Illustrator 25.0.1, SVG Export Plug-In . SVG Version: 6.00 Build 0)  -->
<svg version="1.1" id="Calque_1" xmlns="http://www.w3.org/2000/svg" xmlns:xlink="http://www.w3.org/1999/xlink" x="0px" y="0px"
	 viewBox="0 0 462.8 545.3" style="enable-background:new 0 0 462.8 545.3;" xml:space="preserve">
<style type="text/css">
	.st0{fill:#E45F5D;}
	.st1{fill:#FFFFFF;}
</style>
<g id="Calque_2_1_">
	<g id="Calque_1-2">
		<path class="st0" d="M462.8,422.9l-12.8,14c-6.1-4.8-12-9.7-18.1-14.4c-2.6-2-5.5-4.9-8.8-1.1s-0.9,6.7,2,9.1
			c5.9,5,12,9.8,18.4,15.1L431,461l-36.4-29.4l12-15l5.9,4.6c-2.8-7.1-1-13.1,3.7-18.6c6-6.9,12.7-7.8,19.9-2.2
			c9,7,17.7,14.2,26.6,21.3L462.8,422.9z"/>
		<path class="st0" d="M183.1,0c3.2,16.7,6.4,33.4,9.6,50.1c0.4,2,0.7,4,1.2,7L174.4,61L163,4.4L179.7,0H183.1z"/>
		<path class="st0" d="M114.4,132.9h233.5v7.1c0,69.3-0.3,138.7,0.2,208c0.1,20.8-9.6,34.7-25.9,45.5c-9.8,6.5-21.1,8.9-32.5,11.2
			c-11.8,2.4-23.5,5.5-35,9.3c-8.8,2.9-17.1,7.4-21.2,16.8c-0.3,0.6-4.6,0.6-4.9,0c-4.7-10.4-14.1-14.8-23.9-17.8
			c-12.8-3.9-26-6.5-39.1-9.5c-24-5.4-42.8-17.1-50.7-41.9c-0.6-1.8-0.9-3.7-0.9-5.5c0-72.6,0-145.1,0-217.7
			C114.1,136.6,114.3,135,114.4,132.9z M150.4,205.3c-0.2-1.7,0.1-3.2-0.5-4.2c-0.7-1.2-2.3-2.7-3.4-2.6c-1.4,0.1-3.8,1.6-3.9,2.7
			c-0.5,6.5-1.7,13.4,5.9,17.2c4.4,2.2,5.5,5.9,5.5,10.8c-0.2,37.3-0.1,74.6-0.2,111.9c0,4.4,1.2,6,5.7,6c16.5-0.2,32.9-0.2,49.4,0
			c4.1,0,5.2-1.5,5.1-5.4c-0.2-6.8,0.1-13.6-0.1-20.5c-0.3-8.2,3.2-14.6,9.1-20c3.7-3.4,7.5-3.4,11.2-0.4c5.7,4.6,9.1,10.6,9.2,18.1
			c0.1,7.2,0.3,14.4-0.1,21.6c-0.3,5,1.4,6.6,6.4,6.5c15.7-0.3,31.4-0.3,47.1-0.1c5,0.1,6.8-1,6.8-6.5c-0.2-37.5-0.1-75-0.2-112.5
			c0-3.8,0.9-6.9,4.2-8.5c7.1-3.6,8.6-9.5,7.2-16.6c-0.3-1.7-2.1-3.1-3.2-4.7c-1.4,1.3-3.9,2.4-4.1,3.8c-0.5,3.5-2.5,3.8-5.1,3.7
			s-5.6,0.5-5.5-3.7c0.1-4-3.1-3.4-5.3-3.2c-2.6,0.3-6.9-2-7.4,2.7s-3.4,4-6.4,4.2c-3.4,0.2-4.1-1.4-4.2-4.4c0-1.1-2-2.8-3-2.8
			c-1.5,0-3.9,0.9-4.4,2.1c-2.3,5.6-0.1,13.6,5.1,16.9s7.2,7.3,6.4,13.2c-0.2,2.1-0.2,4.2,0,6.2c0.2,3.5-1.4,4.6-4.8,4.6
			c-6.8-0.1-13.6-0.2-20.4,0c-4.2,0.2-5-1.6-5-5.4c0.2-13.1,0.2-26.1,0-39.2c-0.1-4.3,0.6-8,4.3-10.4c8.5-5.6,7.8-13.7,6.7-22.5
			c-4,0.1-9.1-3.1-9.6,4.6c0,0.8-1.8,1.9-2.8,2c-3.1,0.3-6.3,0.1-9.9,0.1c1.1-7.1-2.6-8.1-7.6-7.4c-2.9,0.4-6.8-1.5-7.2,3.8
			c-0.4,5.6-4.9,3.2-7.9,3.6s-5.7,0.2-5.7-4.1c0-1-2.3-2.7-3.6-2.8c-1.7-0.1-4.5,0.6-5.1,1.8c-2.3,4.6,0.4,14.2,4,18.2
			c2.6,3,6.4,6.5,6.6,9.9c0.7,14.4,0.3,28.8,0.3,43.2c0,3.5-1.6,4.6-4.9,4.5c-5.5-0.1-11,0.1-16.5-0.1c-9.2-0.2-9.1,1.9-8.9-9.3
			c0.1-4.5-1.4-9.8,4.1-12.6c7.3-3.7,8.7-9.9,7.3-17.2c-0.3-1.5-2.1-3.8-3.2-3.8c-1.3-0.1-3.8,1.8-3.9,3.1c-0.4,3.3-2,3.7-4.8,4.1
			c-5.4,0.7-6.4-2.3-6.4-7.1c-2.5-0.1-5.1-0.1-7.6,0.1c-1.5,0.2-4.2,0.9-4.3,1.6C160.2,208.6,154.8,205.2,150.4,205.3L150.4,205.3z"
			/>
		<path class="st0" d="M347,520.6l-18.2,6.4c-1-2-1.9-3.8-2.5-5c-2.4,3.2-4.2,7.3-7.3,9.7c-7.3,5.6-16,4.3-21.6-3
			c-5.8-7.8-9.2-17.1-9.8-26.8c-0.5-6.1,2-10.6,7.5-13.5c5.8-3,11.5-5,17.5-0.4c0.7,0.4,1.4,0.7,2.2,1c-1.9-5.7-3.7-10.8-5.7-16.5
			l18.4-6.7C334,484.2,340.4,502.1,347,520.6z M309,504.6c0.2,6.6,3.7,11.5,7.2,11.3c3.8-0.2,5.9-2.3,5.7-6.3
			c-0.2-5.1-3.4-9.8-7-9.5S309,502.4,309,504.6L309,504.6z"/>
		<path class="st0" d="M0,425l10.8-8.6c4,5.5,7.6,10.8,11.6,15.7c1.2,1.5,4.7,3,5.9,2.3c3.3-2,0.9-4.5-0.6-6.6s-3-3.9-4.4-5.9
			c-5.2-7.7-4.9-12.9,1.3-19.2c7.9-8.1,16.6-10.9,23-5.2c7.3,6.6,13.1,14.9,19.5,22.5c1.1,1.5,2,3.2,2.9,4.9l-12.7,10.5
			c-1.3-1.9-2.3-3.6-3.5-5.1c-3.1-4-6.1-8.2-9.6-11.9c-0.9-1-3.3-0.6-5-0.8c0,1.7-0.5,3.6,0.2,4.9c1.5,2.6,3.7,4.8,5.4,7.3
			c5.4,7.8,5.2,12.8-0.7,18.7c-8,8-15.4,9.6-22.6,4c-4.2-3.5-8-7.4-11.2-11.8C6.6,435.8,3.6,430.6,0,425z"/>
		<path class="st0" d="M106,90.5L82.4,108L38.2,71.6l17.5-12.9l27,24.9c-4.9-10.2-9.3-19.6-14-28.9c-1.8-3.5-1.3-5.2,2-7.3
			c4.4-2.8,8.5-6.2,13.3-9.7L106,90.5z"/>
		<path class="st0" d="M74.8,489.2c-8.9,4.4-15.2,1.8-20.4-4.1s-3.9-12.4-0.7-18.5c2.8-4.9,5.9-9.6,9.5-14c4.5-5.8,10.2-10.2,18-7.5
			c7.5,2.5,13.4,7.1,14.4,17l2-4.9l16.5,11.9L86.8,507l-15.5-11.1L74.8,489.2z M86.5,470.2c-1.4-0.9-3.5-3.2-5.9-3.8
			c-3.5-0.7-9.1,6-8,9.9c0.9,2.5,2.9,4.4,5.4,5.3C81.1,482.6,86.7,475.9,86.5,470.2L86.5,470.2z"/>
		<path class="st0" d="M343.4,470.3l16.4-11.6c5.6,8,10.9,15.5,16.3,23c1.8,2.5,3.9,5,7.5,2.9c3.8-2.3,3.8-5.1,1.4-8.5
			c-5.5-7.6-10.9-15.4-16.5-23.4l16.4-11.8c6.8,9.9,13.6,19.4,19.8,29.2c3.2,5.1,1.8,10.7-1.9,15.4c-6,7.7-14.1,13.4-23.3,16.5
			c-7.4,2.5-13,0.5-17.9-6.1C355.5,487.6,349.7,479.2,343.4,470.3z"/>
		<path class="st0" d="M226.3,528.4l-30.7-3.3c0.9,7.9,4.5,8.8,28.2,7.4c0.4,9.4-1.3,11.9-10.2,12.5c-6.8,0.5-13.6,0.1-20.3-1
			c-11-1.9-16.8-9.5-17-20.8c-0.3-21.7,7.4-29.1,28.5-27.6C225.1,497.2,232.1,507.7,226.3,528.4z M212.1,516.7
			c-0.2-6.2-2.6-8.5-8.2-8.6c-4.8-0.1-6.7,1.7-7.2,7L212.1,516.7z"/>
		<path class="st0" d="M250.6,36.3H220c0.2,5.5,3.7,6.8,7.2,6.8c5.4,0,10.9-0.8,16.3-1.4c2.1-0.3,4.3-0.8,6.4-1.4
			c-0.4,3.2-0.3,5.9-1.1,8.4c-0.5,1.7-2.1,4-3.4,4.2c-8.9,1.2-17.9,2.8-26.8,2.5c-9.3-0.3-15-6.2-17.2-15.4
			c-0.5-1.8-0.8-3.7-0.9-5.6c-1.6-20.1,5.7-27.9,25.9-28h1.1C246.9,6.5,254.7,16.2,250.6,36.3z M235.4,26.2
			c-1.3-6.3-3.8-8.1-9.7-7.3c-4.2,0.6-6.8,2.6-6.1,7.3L235.4,26.2z"/>
		<path class="st0" d="M391.3,95.4L364.7,77c-1.8,8.4,2.9,12.5,21.7,20.2c-4.1,8.6-7,10.1-15,6.2c-6.5-3.1-12.6-6.9-18.2-11.4
			c-7.6-6.2-9.2-14.8-5-23.6c4.5-9.3,9.7-19.4,21.7-19.1c13.1,0.3,23.1,8.1,29.5,19.3c1.8,3.1,1.6,8.4,0.4,11.9
			C398,85.7,394.4,90.3,391.3,95.4z M370.3,68.4l13.3,9.3c3.1-4.4,2-7.6-1.3-10.3C378.6,64.6,374.6,63.1,370.3,68.4L370.3,68.4z"/>
		<path class="st0" d="M153.3,486c0.9,0.2,1.7,0.4,2.5,0.6c5.1,1.9,10.2,3.9,16.1,6.1c-1.7,2.3-3.2,4.4-4.7,6.4
			c-6.8,9.1-13.8,18-20.4,27.3c-2.8,4-5.4,5.6-10.2,3.1c-4-2.1-8.3-3.7-12.7-4.9c-4.7-1.2-6.1-3.6-5.6-8.4
			c1.5-13.9,2.5-27.8,3.7-42.3c5.8,2.2,11.1,3.9,16.2,6.2c1.1,0.5,2,3,1.9,4.4c-0.8,8.2-2,16.5-3.2,25.6L153.3,486z"/>
		<path class="st0" d="M265.9,542.9l-19.7,2.1c-1.8-15.6-3.5-30.6-5.3-46.2l17.9-2.1c0.5,2.4,0.8,4.3,0.9,5
			c3.4-2.5,6.8-5.2,10.5-7.4c0.5-0.3,3.4,1.5,3.6,2.6c1,6.1,1.5,12.3,2.2,18.4c-11.5,2.8-12.4,4-11.2,16.2
			C265.1,535,265.5,538.8,265.9,542.9z"/>
		<path class="st0" d="M128.5,14.7l19-6.4c6.2,18.4,12.4,36.5,18.7,55l-19,6.5C140.9,51.3,134.8,33.3,128.5,14.7z"/>
		<path class="st0" d="M139.1,72.9l-18,8.9c-6.8-13.8-13.4-27.3-20.1-41l18-8.9L139.1,72.9z"/>
		<path class="st0" d="M116.3,27.9c-0.3,0.4-0.8,1.6-1.6,2.1c-4.1,2.3-8.3,4.3-12.7,6c-1.2,0.4-4.1-1.5-4.8-3s0-4.6,1.1-5.4
			c3.5-2.2,7.1-4.1,11-5.6C113.1,20.4,116.4,23.1,116.3,27.9z"/>
		<path class="st1" d="M191.2,294.3c0-9.8,0.4-19-0.2-28.2c-0.4-5.6-6.1-11.3-9.6-11.5c-4-0.2-10.3,5.8-10.8,11.7
			c-0.6,9.2-0.2,18.4-0.2,27.9H191.2z M266,294.6c6.6,0,12.4,0.1,18.2-0.1c1.1,0,3.2-1.4,3.2-2.1c-0.1-9.4,0.3-19-1.3-28.1
			c-0.6-3.6-5.6-8.2-9.4-9.2c-4.8-1.2-7.2,4.4-9.3,8.4c-0.7,1.3-1.2,2.8-1.3,4.3C266,276.4,266,285.1,266,294.6L266,294.6z"/>
		<path class="st0" d="M191.2,294.3h-20.7c0-9.5-0.5-18.8,0.2-27.9c0.4-5.9,6.7-11.9,10.8-11.7c3.6,0.2,9.3,5.9,9.6,11.5
			C191.7,275.3,191.2,284.5,191.2,294.3z"/>
		<path class="st0" d="M266,294.6c0-9.5-0.1-18.2,0-26.8c0.1-1.5,0.5-3,1.3-4.3c2.1-4,4.5-9.6,9.3-8.4c3.8,1,8.8,5.5,9.4,9.2
			c1.6,9.2,1.2,18.7,1.3,28.1c0,0.7-2,2.1-3.2,2.1C278.4,294.7,272.6,294.6,266,294.6z"/>
		<path class="st0" d="M329.5,75.5l-17-9.1c0.8-2.1,1.5-3.9,2-5.2c-4,0.4-8.2,1.8-12.1,1.1c-9.1-1.6-14-8.9-12.4-18
			c1.8-9.6,6.4-18.4,13.1-25.3c4.2-4.5,9.2-5.7,15-3.6c6.1,2.2,11.5,5.1,12.1,12.6c0.2,0.8,0.4,1.5,0.7,2.3c2.9-5.3,5.5-10,8.4-15.3
			l17.4,9L329.5,75.5z M315.7,36.7c-4.7,4.5-6,10.5-3.5,12.9c2.7,2.7,5.6,2.8,8.5,0c3.7-3.6,4.9-9.1,2.3-11.6S317.3,35.1,315.7,36.7
			z"/>
	</g>
</g>
</svg>
