<svg xmlns="http://www.w3.org/2000/svg" viewBox="0 0 462.75 545.3"><defs><style>.cls-1{fill:#fff;}.cls-2{fill:#1e1e1d;}</style></defs><g id="Calque_2" data-name="Calque 2"><g id="Calque_1-2" data-name="Calque 1"><path class="cls-1" d="M114.42,132.93c-.12,2-.3,3.7-.3,5.36q0,108.86,0,217.69a18.67,18.67,0,0,0,.9,5.54c7.91,24.8,26.64,36.52,50.66,41.94,13.08,3,26.29,5.58,39.09,9.5,9.74,3,19.19,7.36,23.89,17.76.3.66,4.57.66,4.85,0,4.12-9.41,12.36-13.89,21.19-16.79a322.55,322.55,0,0,1,35.05-9.22c11.39-2.35,22.68-4.74,32.5-11.24,16.23-10.75,26-24.69,25.86-45.48-.51-69.33-.19-138.68-.19-208v-7.07ZM347,520.64c-6.61-18.51-13-36.43-19.54-54.78l-18.41,6.74c2,5.77,3.72,10.85,5.66,16.53a14,14,0,0,1-2.17-1c-5.93-4.66-11.7-2.68-17.47.36-5.45,2.88-7.91,7.39-7.46,13.5a49.44,49.44,0,0,0,9.83,26.79c5.57,7.33,14.31,8.63,21.6,3,3.12-2.41,5-6.47,7.34-9.7.59,1.21,1.47,3,2.46,5ZM0,425c3.63,5.53,6.63,10.8,10.31,15.54A66.45,66.45,0,0,0,21.56,452.4c7.18,5.56,14.61,3.92,22.58-4,5.91-5.88,6.13-10.88.71-18.69-1.72-2.48-3.94-4.65-5.39-7.26-.71-1.29-.2-3.27-.24-4.93,1.72.23,4.11-.17,5,.81,3.46,3.71,6.46,7.85,9.58,11.88,1.2,1.55,2.24,3.24,3.52,5.11L70,424.76a36.21,36.21,0,0,0-2.86-4.85C60.73,412.28,54.94,404,47.6,397.4c-6.36-5.68-15.07-2.94-23,5.2-6.17,6.36-6.55,11.56-1.3,19.24,1.38,2,3,3.91,4.4,5.91s3.9,4.67.6,6.62c-1.17.68-4.62-.8-5.85-2.28-4.1-4.89-7.67-10.23-11.65-15.68ZM106,90.48,84,37.73c-4.82,3.57-8.88,7-13.33,9.75-3.26,2-3.75,3.81-2,7.26,4.78,9.25,9.14,18.71,14,28.87l-27-24.92L38.2,71.61,82.44,108ZM74.79,489.23l-3.53,6.67L86.81,507l27.31-37.91L97.61,457.21l-2,4.92c-1-10-6.9-14.52-14.42-17.05-7.83-2.63-13.51,1.76-18,7.54a101.8,101.8,0,0,0-9.46,14c-3.28,6.08-4.54,12.68.65,18.5S65.89,493.61,74.79,489.23Zm268.61-19c6.33,8.91,12.14,17.29,18.16,25.51,4.82,6.57,10.43,8.56,17.86,6.07a49.21,49.21,0,0,0,23.26-16.46c3.68-4.64,5.11-10.22,1.92-15.36-6.15-9.87-13-19.31-19.77-29.22L368.4,452.57c5.67,8,11.05,15.76,16.53,23.41,2.42,3.39,2.43,6.27-1.4,8.54-3.64,2.14-5.7-.4-7.49-2.88-5.4-7.47-10.67-15.05-16.29-23ZM226.33,528.44c5.77-20.76-1.25-31.23-21.39-32.69-21.18-1.54-28.87,5.91-28.53,27.61.18,11.31,5.93,18.91,17,20.79a87.58,87.58,0,0,0,20.27,1c9-.59,10.58-3.08,10.23-12.51-23.71,1.39-27.33.5-28.24-7.41ZM250.57,36.32c4.11-20.11-3.68-29.83-23.17-29.84h-1.14c-20.15.12-27.41,8-25.86,28a35,35,0,0,0,.95,5.57c2.22,9.17,7.84,15.13,17.18,15.41,8.92.26,17.92-1.34,26.83-2.55,1.35-.18,2.91-2.54,3.45-4.19.78-2.42.72-5.11,1.09-8.35a65.16,65.16,0,0,1-6.38,1.36c-5.42.62-10.85,1.46-16.28,1.44-3.49,0-7-1.3-7.21-6.85ZM391.34,95.44c3-5.17,6.63-9.73,8.43-14.91,1.25-3.58,1.41-8.83-.37-11.94-6.42-11.26-16.46-19-29.55-19.32-11.94-.32-17.2,9.77-21.66,19.1-4.19,8.78-2.54,17.35,5,23.6a90.89,90.89,0,0,0,18.16,11.36c8.09,3.94,10.89,2.44,15-6.16C367.58,89.51,362.89,85.35,364.7,77ZM153.33,486l-16.22,24.15c1.19-9.16,2.38-17.37,3.22-25.61.14-1.44-.78-3.92-1.89-4.42-5.1-2.3-10.45-4.07-16.22-6.23-1.23,14.57-2.2,28.48-3.7,42.34-.52,4.87.92,7.18,5.58,8.43a61.6,61.6,0,0,1,12.68,4.86c4.77,2.52,7.32.92,10.16-3.08,6.55-9.27,13.56-18.2,20.38-27.27,1.51-2,3-4.08,4.68-6.41-5.9-2.26-11-4.22-16.13-6.15A23.46,23.46,0,0,0,153.33,486Zm112.53,56.95c-.4-4.17-.76-7.88-1.11-11.58-1.18-12.15-.32-13.43,11.23-16.19-.68-6.12-1.19-12.31-2.19-18.42-.19-1.09-3.08-2.91-3.63-2.58-3.68,2.21-7.05,4.91-10.46,7.4-.13-.69-.49-2.6-.94-4.95l-17.89,2.12c1.78,15.67,3.48,30.63,5.26,46.25ZM128.48,14.67c6.32,18.66,12.41,36.64,18.65,55l19-6.5c-6.27-18.48-12.41-36.58-18.66-55Zm10.61,58.27L119,32l-18,8.85c6.68,13.65,13.33,27.23,20.08,41Zm-22.82-45c.17-4.81-3.14-7.53-6.89-6a58.63,58.63,0,0,0-11,5.59c-1.17.81-1.78,4-1.13,5.44s3.59,3.45,4.79,3a89.29,89.29,0,0,0,12.65-6C115.52,29.54,116,28.35,116.27,27.92Z"/><path class="cls-2" d="M462.75,422.89l-12.82,14c-6.06-4.84-12-9.7-18.12-14.44-2.64-2.05-5.46-4.94-8.78-1.11s-.85,6.71,2,9.15c5.91,5,11.95,9.82,18.41,15.1L431,461l-36.39-29.38,12-15,5.91,4.56c-2.76-7.09-1-13.14,3.74-18.6,6-6.93,12.72-7.8,19.9-2.21,9,7,17.72,14.21,26.57,21.34Z"/><path class="cls-2" d="M183.13,0q4.8,25,9.59,50.08c.38,2,.68,4.05,1.17,7l-19.45,3.91L163,4.44,179.72,0Z"/><path class="cls-2" d="M114.42,132.93H347.91V140c0,69.34-.32,138.69.19,208,.15,20.79-9.63,34.73-25.86,45.48-9.82,6.5-21.11,8.89-32.5,11.24A322.55,322.55,0,0,0,254.69,414c-8.83,2.9-17.07,7.38-21.19,16.79-.28.63-4.55.63-4.85,0-4.7-10.4-14.15-14.78-23.89-17.76-12.8-3.92-26-6.55-39.09-9.5-24-5.42-42.75-17.14-50.66-41.94a18.67,18.67,0,0,1-.9-5.54q0-108.84,0-217.69C114.12,136.63,114.3,135,114.42,132.93Zm36,72.36c-.17-1.7.07-3.23-.54-4.22-.74-1.18-2.3-2.71-3.35-2.6-1.44.15-3.83,1.6-3.92,2.66-.54,6.5-1.73,13.41,5.94,17.23,4.38,2.19,5.5,5.88,5.47,10.78-.2,37.31-.05,74.62-.2,111.93,0,4.38,1.17,6,5.73,6q24.71-.31,49.42,0c4.08.05,5.25-1.55,5.13-5.36-.22-6.81.06-13.64-.15-20.45-.27-8.22,3.21-14.57,9.07-20,3.71-3.41,7.48-3.37,11.23-.35,5.74,4.62,9.13,10.57,9.24,18.07.11,7.2.34,14.41-.05,21.59-.28,5,1.45,6.61,6.4,6.53,15.71-.26,31.43-.33,47.14-.06,5.05.09,6.82-1,6.79-6.49-.24-37.5-.06-75-.22-112.5,0-3.84.85-6.85,4.17-8.54,7.06-3.6,8.58-9.54,7.24-16.57-.32-1.71-2.08-3.15-3.19-4.72-1.44,1.26-3.93,2.39-4.11,3.81-.45,3.54-2.45,3.81-5.11,3.73s-5.6.54-5.48-3.68c.11-4-3.07-3.45-5.26-3.18-2.62.32-6.93-2-7.42,2.67s-3.4,4-6.41,4.21c-3.37.22-4.09-1.45-4.23-4.44-.05-1.06-2-2.83-3-2.84-1.51,0-3.91.94-4.39,2.12-2.32,5.61-.06,13.6,5.12,16.9s7.23,7.31,6.41,13.21a30.35,30.35,0,0,0,0,6.25c.23,3.5-1.42,4.62-4.75,4.55-6.81-.15-13.64-.25-20.44,0-4.21.18-5-1.63-5-5.38.17-13.07.21-26.14,0-39.2-.07-4.28.58-8,4.27-10.4,8.5-5.56,7.82-13.71,6.72-22.48-4,.11-9.15-3.13-9.58,4.58,0,.75-1.78,1.94-2.8,2-3.12.27-6.28.09-9.85.09,1.11-7.1-2.56-8.13-7.61-7.43-2.86.39-6.82-1.5-7.23,3.81-.44,5.63-4.94,3.25-7.9,3.65s-5.67.24-5.69-4.13c0-1-2.31-2.73-3.65-2.81-1.71-.11-4.46.61-5.09,1.84-2.34,4.56.39,14.21,4,18.24,2.65,3,6.4,6.49,6.58,9.92.73,14.35.26,28.77.33,43.16,0,3.52-1.65,4.56-4.91,4.48-5.49-.15-11,.07-16.48-.05-9.25-.2-9.11,1.9-8.87-9.29.09-4.51-1.45-9.81,4.08-12.59,7.3-3.68,8.69-9.93,7.31-17.16-.29-1.51-2.05-3.75-3.21-3.8-1.32-.06-3.75,1.83-3.91,3.1-.41,3.27-2,3.73-4.83,4.12-5.35.73-6.42-2.33-6.42-7.08a70.46,70.46,0,0,0-7.61.07c-1.53.17-4.2.92-4.26,1.61C160.18,208.61,154.78,205.23,150.39,205.29Z"/><path class="cls-2" d="M347,520.64l-18.16,6.42c-1-2-1.87-3.79-2.46-5-2.37,3.23-4.22,7.29-7.34,9.7-7.29,5.63-16,4.33-21.6-3A49.44,49.44,0,0,1,287.63,502c-.45-6.11,2-10.62,7.46-13.5,5.77-3,11.54-5,17.47-.36a14,14,0,0,0,2.17,1c-1.94-5.68-3.68-10.76-5.66-16.53l18.41-6.74C334,484.21,340.41,502.13,347,520.64Zm-37.95-16c.16,6.56,3.69,11.51,7.18,11.33,3.77-.2,5.85-2.3,5.72-6.27-.16-5.15-3.43-9.78-7-9.55S309.05,502.38,309.07,504.61Z"/><path class="cls-2" d="M0,425l10.83-8.62c4,5.45,7.55,10.79,11.65,15.68,1.23,1.48,4.68,3,5.85,2.28,3.3-1.95.92-4.5-.6-6.62s-3-3.89-4.4-5.91c-5.25-7.68-4.87-12.88,1.3-19.24,7.9-8.14,16.61-10.88,23-5.2,7.34,6.57,13.13,14.88,19.51,22.51A36.21,36.21,0,0,1,70,424.76L57.34,435.29c-1.28-1.87-2.32-3.56-3.52-5.11-3.12-4-6.12-8.17-9.58-11.88-.91-1-3.3-.58-5-.81,0,1.66-.47,3.64.24,4.93,1.45,2.61,3.67,4.78,5.39,7.26,5.42,7.81,5.2,12.81-.71,18.69-8,7.95-15.4,9.59-22.58,4a66.45,66.45,0,0,1-11.25-11.83C6.63,435.83,3.63,430.56,0,425Z"/><path class="cls-2" d="M106,90.48,82.44,108,38.2,71.61,55.71,58.69l27,24.92c-4.91-10.16-9.27-19.62-14-28.87-1.79-3.45-1.3-5.22,2-7.26C75.1,44.7,79.16,41.3,84,37.73Z"/><path class="cls-2" d="M74.79,489.23c-8.9,4.38-15.23,1.78-20.44-4.07s-3.93-12.42-.65-18.5a101.8,101.8,0,0,1,9.46-14c4.52-5.78,10.2-10.17,18-7.54,7.52,2.53,13.43,7.06,14.42,17.05l2-4.92,16.51,11.92L86.81,507,71.26,495.9Zm11.75-19c-1.4-.93-3.49-3.23-5.94-3.75-3.46-.73-9.09,6-8,9.86a9,9,0,0,0,5.36,5.27C81.1,482.58,86.66,475.89,86.54,470.25Z"/><path class="cls-2" d="M343.4,470.28l16.35-11.64c5.62,7.95,10.89,15.53,16.29,23,1.79,2.48,3.85,5,7.49,2.88,3.83-2.27,3.82-5.15,1.4-8.54-5.48-7.65-10.86-15.37-16.53-23.41l16.43-11.75c6.77,9.91,13.62,19.35,19.77,29.22,3.19,5.14,1.76,10.72-1.92,15.36a49.21,49.21,0,0,1-23.26,16.46c-7.43,2.49-13,.5-17.86-6.07C355.54,487.57,349.73,479.19,343.4,470.28Z"/><path class="cls-2" d="M226.33,528.44l-30.69-3.26c.91,7.91,4.53,8.8,28.24,7.41.35,9.43-1.26,11.92-10.23,12.51a87.58,87.58,0,0,1-20.27-1c-11-1.88-16.79-9.48-17-20.79-.34-21.7,7.35-29.15,28.53-27.61C225.08,497.21,232.1,507.68,226.33,528.44Zm-14.25-11.72c-.22-6.2-2.63-8.53-8.25-8.63-4.8-.08-6.72,1.71-7.23,7Z"/><path class="cls-2" d="M250.57,36.32H220c.17,5.55,3.72,6.84,7.21,6.85,5.43,0,10.86-.82,16.28-1.44a65.16,65.16,0,0,0,6.38-1.36c-.37,3.24-.31,5.93-1.09,8.35-.54,1.65-2.1,4-3.45,4.19-8.91,1.21-17.91,2.81-26.83,2.55-9.34-.28-15-6.24-17.18-15.41a35,35,0,0,1-.95-5.57c-1.55-20.06,5.71-27.89,25.86-28h1.14C246.89,6.49,254.68,16.21,250.57,36.32ZM235.38,26.19c-1.3-6.32-3.84-8.1-9.7-7.29-4.21.59-6.76,2.6-6.09,7.29Z"/><path class="cls-2" d="M391.34,95.44,364.7,77c-1.81,8.37,2.88,12.53,21.71,20.19-4.15,8.6-7,10.1-15,6.16A90.89,90.89,0,0,1,353.21,92c-7.56-6.25-9.21-14.82-5-23.6,4.46-9.33,9.72-19.42,21.66-19.1,13.09.35,23.13,8.06,29.55,19.32,1.78,3.11,1.62,8.36.37,11.94C398,85.71,394.37,90.27,391.34,95.44Zm-21-27,13.29,9.32c3.11-4.36,2-7.64-1.34-10.27C378.56,64.56,374.65,63.11,370.31,68.4Z"/><path class="cls-2" d="M153.33,486a23.46,23.46,0,0,1,2.54.61c5.12,1.93,10.23,3.89,16.13,6.15-1.7,2.33-3.17,4.39-4.68,6.41-6.82,9.07-13.83,18-20.38,27.27-2.84,4-5.39,5.6-10.16,3.08a61.6,61.6,0,0,0-12.68-4.86c-4.66-1.25-6.1-3.56-5.58-8.43,1.5-13.86,2.47-27.77,3.7-42.34,5.77,2.16,11.12,3.93,16.22,6.23,1.11.5,2,3,1.89,4.42-.84,8.24-2,16.45-3.22,25.61Z"/><path class="cls-2" d="M265.86,542.93,246.13,545c-1.78-15.62-3.48-30.58-5.26-46.25l17.89-2.12c.45,2.35.81,4.26.94,4.95,3.41-2.49,6.78-5.19,10.46-7.4.55-.33,3.44,1.49,3.63,2.58,1,6.11,1.51,12.3,2.19,18.42-11.55,2.76-12.41,4-11.23,16.19C265.1,535.05,265.46,538.76,265.86,542.93Z"/><path class="cls-2" d="M128.48,14.67l19-6.45c6.25,18.4,12.39,36.5,18.66,55l-19,6.5C140.89,51.31,134.8,33.33,128.48,14.67Z"/><path class="cls-2" d="M139.09,72.94l-18,8.91c-6.75-13.77-13.4-27.35-20.08-41L119,32Z"/><path class="cls-2" d="M116.27,27.92c-.31.43-.75,1.62-1.58,2.06A89.29,89.29,0,0,1,102,36c-1.2.41-4.11-1.53-4.79-3s0-4.63,1.13-5.44a58.63,58.63,0,0,1,11-5.59C113.13,20.39,116.44,23.11,116.27,27.92Z"/><path class="cls-1" d="M191.21,294.28c0-9.78.45-19-.17-28.16-.37-5.56-6.08-11.31-9.64-11.47-4-.18-10.34,5.8-10.75,11.72-.62,9.16-.16,18.38-.16,27.91Zm74.81.33c6.58,0,12.41.11,18.23-.11,1.12,0,3.17-1.41,3.16-2.15-.13-9.4.3-19-1.34-28.12-.65-3.65-5.63-8.21-9.44-9.16-4.84-1.21-7.19,4.4-9.3,8.4a9.94,9.94,0,0,0-1.26,4.31C266,276.43,266,285.08,266,294.61Z"/><path class="cls-2" d="M191.21,294.28H170.49c0-9.53-.46-18.75.16-27.91.41-5.92,6.73-11.9,10.75-11.72,3.56.16,9.27,5.91,9.64,11.47C191.66,275.27,191.21,284.5,191.21,294.28Z"/><path class="cls-2" d="M266,294.61c0-9.53-.06-18.18.05-26.83a9.94,9.94,0,0,1,1.26-4.31c2.11-4,4.46-9.61,9.3-8.4,3.81.95,8.79,5.51,9.44,9.16,1.64,9.17,1.21,18.72,1.34,28.12,0,.74-2,2.11-3.16,2.15C278.43,294.72,272.6,294.61,266,294.61Z"/><path class="cls-2" d="M329.47,75.48l-17-9.06c.82-2.09,1.53-3.94,2-5.19-4,.43-8.22,1.81-12.11,1.13-9.07-1.58-14-8.9-12.36-18a49.4,49.4,0,0,1,13.13-25.33c4.21-4.46,9.2-5.68,15-3.61,6.14,2.2,11.5,5.13,12.06,12.65a14.34,14.34,0,0,0,.72,2.29c2.87-5.27,5.45-10,8.37-15.34l17.4,9ZM315.69,36.66c-4.74,4.54-6,10.49-3.52,12.94,2.69,2.65,5.65,2.77,8.49,0,3.69-3.6,4.9-9.13,2.3-11.63S317.32,35.14,315.69,36.66Z"/></g></g></svg>