<svg xmlns="http://www.w3.org/2000/svg" viewBox="0 0 461.54 524.53"><defs><style>.cls-1{fill:#fff;}</style></defs><g id="Calque_2" data-name="Calque 2"><g id="Calque_1-2" data-name="Calque 1"><path class="cls-1" d="M41.72,435.13c-10,0-19.38.13-28.79,0-6.07-.11-10.9-3.81-12.4-9s.28-11.1,5-13.87a17.71,17.71,0,0,1,8.2-2.17c9.06-.27,18.13-.1,27.59-.1V328.23H27.09c-5.09,0-10.2.19-15.28-.08C4.94,327.79.14,322.38.18,315.52a12,12,0,0,1,11.94-12.29c9.62-.18,19.24,0,29.23,0V221.36c-9.21,0-18.25,0-27.29,0C5.4,221.29.14,216.46.18,208.78s5.43-12.46,14.05-12.51c8.9-.06,17.79,0,27.09,0V114.58c-6.3,0-12.76,0-19.21,0-3.1,0-6.19.08-9.28,0C5.23,114.22.3,109.44.19,102.4c-.1-7.27,4.89-12.7,12.57-12.92,9.42-.27,18.86-.06,29-.06,0-9.43-.09-18.46,0-27.48.33-26.4,17.27-50.13,42.36-58.18a76.62,76.62,0,0,1,23-3.57Q251.77-.17,396.37.07C428.83.1,453.43,19.59,460,50.34a77.44,77.44,0,0,1,1.44,16.25q.12,195.63,0,391.27c0,30.54-15.58,53.95-42.64,63a72.67,72.67,0,0,1-22.46,3.51q-144.89.35-289.77.13c-34,0-59.66-21.81-64.45-55.19-1.23-8.56-.38-17.43-.47-26.15C41.7,440.65,41.72,438.16,41.72,435.13ZM67.05,196.26c9.7,0,18.94-.09,28.18,0,8,.11,13.3,5.34,13.21,12.8-.08,7.08-5.08,12.11-12.54,12.22-9.56.15-19.13,0-28.78,0v81.83H86.88c3.1,0,6.19-.08,9.28,0,7.3.25,12.32,5.41,12.3,12.52a12.14,12.14,0,0,1-12.39,12.46c-9.58.17-19.16,0-28.76,0V410c9.54,0,18.62-.17,27.69.1a17.51,17.51,0,0,1,8.17,2.24c4.7,2.81,6.43,8.62,4.88,13.92-1.48,5.05-6.4,8.74-12.48,8.84-9.4.16-18.8,0-28.73,0,0,8.38,0,16.15,0,23.92.08,24.2,15.64,40,39.87,40q144.85.1,289.72,0c24.23,0,39.78-15.22,39.8-39.34q.15-197.5-.15-395a45,45,0,0,0-4.7-19.77c-7.26-14.12-19.89-19.52-35.6-19.5q-144,.22-288.08.08-3,0-6,.17C85.7,26.62,71,38,68.35,53.74c-2,11.48-1.44,23.38-2,35.66,10.2,0,19.25-.07,28.3,0,7.38.08,12.6,4,13.65,10.08,1.42,8.22-3.78,14.79-12.3,15-9.56.23-19.14.06-28.9.06Z"/><path class="cls-1" d="M251.58,387.15q-39.26,0-78.51,0c-9,0-14.45-5.29-14.24-14.19,1-43.52,27.59-79.86,68.55-91.15C281,267,335.68,303.59,343,358.87A127.93,127.93,0,0,1,344.05,373c.18,9.19-4.76,14.16-14,14.17Q290.83,387.21,251.58,387.15Zm66.16-25.23c-5-37.06-37.62-62-74.88-57.6-29.57,3.46-58.86,33.11-56.72,57.6Z"/><path class="cls-1" d="M251.71,258.64a60.61,60.61,0,0,1-.45-121.21c33.19-.24,60.89,27.21,61,60.49A60.61,60.61,0,0,1,251.71,258.64Zm-.29-25.27a35.54,35.54,0,0,0,35.67-35c.29-19.33-16.18-35.9-35.59-35.81A35.6,35.6,0,0,0,216.27,198,35.18,35.18,0,0,0,251.42,233.37Z"/></g></g></svg>