<svg xmlns="http://www.w3.org/2000/svg" viewBox="0 0 383.32 383.25"><defs><style>.cls-1{fill:#f6f6f6;}</style></defs><g id="Calque_2" data-name="Calque 2"><g id="Calque_1-2" data-name="Calque 1"><path class="cls-1" d="M383.32,226.06V383.25H.08v-3.43Q.08,262.15,0,144.46c0-2.7,1.11-3.93,3.13-5.23q55.07-35.29,110-70.75c2.2-1.43,3.67-1.45,5.87,0q54.93,35.46,110,70.72a5.77,5.77,0,0,1,3.12,5.62c-.11,25.7-.07,51.39-.07,77.09v3.9H249.2q11.25-82.44,22.41-164.21h64.74c7.48,54.85,14.95,109.55,22.44,164.49ZM209.67,360.62v-3.43q0-100.11.05-200.22a5.22,5.22,0,0,0-2.72-5.09q-44.1-28.18-88.06-56.59c-2.06-1.33-3.45-1.44-5.58-.06q-43.94,28.42-88,56.59a5.52,5.52,0,0,0-2.86,5.38q.11,99.74.05,199.47v3.95Zm128.12-89.48v89.35h22.88V248.73H232.37V360.5h23.08V271.14ZM285.28,128.88c-4.41,32.32-8.8,64.55-13.21,96.91h63.82c-4.43-32.51-8.83-64.73-13.22-96.91Zm29.66,231.75v-66.9H278v66.9Zm1.62-276.55H291.38c-1,7.47-2,14.69-3,22h31.14C318.54,98.61,317.57,91.47,316.56,84.08Z"/><path class="cls-1" d="M315.21,0V38.68H292.87v-16H214.15V0Z"/><path class="cls-1" d="M191.7,0V22.2H146.79V0Z"/><path class="cls-1" d="M82,226.22c11.37-20.23,22.53-40.06,34.11-60.66l34.14,60.66-19.69,11.1-14.43-25.54-14.43,25.5Z"/><path class="cls-1" d="M37,306.11l33.59-59.7,19.7,11.06L75.64,283.71h29v22.4Z"/><path class="cls-1" d="M161.58,246.41l33.55,59.65H127.57V283.88h29.06l-14.72-26.37Z"/></g></g></svg>