<svg xmlns="http://www.w3.org/2000/svg" viewBox="0 0 319.82 383.39"><defs><style>.cls-1{fill:#fff;}.cls-2{fill:none;}</style></defs><g id="Calque_2" data-name="Calque 2"><g id="Calque_1-2" data-name="Calque 1"><g id="Calque_2-2" data-name="Calque 2"><g id="Calque_1-2-2" data-name="Calque 1-2"><path class="cls-1" d="M4.15,383.39C.69,381.21,0,377.87,0,374.07v-339c0-7.54,2-9.49,9.54-9.5H38.47V9.4c0-7.52,1.76-9.3,9.14-9.3q86.87,0,173.7-.09a11.6,11.6,0,0,1,8.92,3.68Q273,46.62,316,89.39a12.18,12.18,0,0,1,3.83,9.29q-.06,118.62,0,237.24c0,7.17-2.17,9.23-9.46,9.23h-29v4.13c0,8.23-.14,16.46,0,24.69.09,3.84-.63,7.08-3.89,9.4ZM306.47,332V102.49H226.94c-7.55,0-9.53-2-9.54-9.5V13.12H51.52V332ZM13.38,38.62v331.7H268.26V345.17H48.79c-1.24,0-2.5.07-3.74,0-4-.32-6.3-2.7-6.51-6.74-.06-1.37,0-2.75,0-4.12V38.62ZM230.47,23.25V89.06h65.86Z"/><path class="cls-2" d="M198.47,172.75h73a21.48,21.48,0,0,0,5.18-.51,5.72,5.72,0,0,0,4.59-6c0-4.17-2.89-6.57-8.21-6.57H123.36a13.66,13.66,0,0,0-3.31.43,6.26,6.26,0,0,0,.3,12.26,31,31,0,0,0,4.82.41Zm-.31,38.33h73.71a19.21,19.21,0,0,0,4.78-.54,6.24,6.24,0,0,0,0-12,18.47,18.47,0,0,0-4.8-.54h-147c-6.28,0-9.53,2.18-9.66,6.42s3.23,6.73,9.72,6.73Zm.05,38.27h73.71a24.49,24.49,0,0,0,3.73-.13,6.31,6.31,0,0,0,5.56-6.44c0-3.41-2.11-5.71-5.72-6.19a35.27,35.27,0,0,0-4.48-.2H125.46a35.11,35.11,0,0,0-4.47.2,6.44,6.44,0,0,0-5.9,6.16,6.71,6.71,0,0,0,5.68,6.46,22.88,22.88,0,0,0,3.7.18ZM198,134.24h73.33a33.5,33.5,0,0,0,4.48-.18,6,6,0,0,0,5.36-6.13c.06-4.31-2.83-6.55-8.53-6.55H124.53c-6.23,0-9.51,2.29-9.43,6.56s3.19,6.3,9.24,6.3H198Zm0,153.32h75.58c4.79,0,7.53-2.35,7.56-6.32s-2.66-6.34-7.45-6.43H124.87c-1.25,0-2.74-.4-3.69.13-2,1.14-4.52,2.39-5.45,4.27-2.16,4.36,1.44,8.34,7.15,8.35H198ZM102,108.67h18.33c4.88,0,7.45-2.09,7.52-6.82q.3-18.7,0-37.42c-.07-4.63-2.51-6.78-7.15-6.81q-18.34-.13-36.68,0c-5,0-7.31,2.45-7.33,7.39q-.08,18.15,0,36.29c0,4.93,2.43,7.32,7.34,7.38,6.07,0,12.06,0,18.05,0ZM89.68,211.29a65,65,0,0,0,8-.77c3.18-.68,4.75-3,4.63-6.28s-1.75-5.51-4.8-5.73a110.69,110.69,0,0,0-15.56,0c-3.28.22-5,2.76-5,6s1.61,5.55,4.86,6.17C84.42,211,87.05,211.2,89.68,211.29Zm-.08-51.62c-2.11,0-4.24-.16-6.34,0-3.86.37-6.43,3.07-6.43,6.47s2.2,6,6.08,6.3a88.15,88.15,0,0,0,13.4,0c4.08-.32,6.14-3,6-6.68-.15-3.31-2.57-5.75-6.34-6.1C93.85,159.51,91.72,159.67,89.6,159.67Zm0,127.86c2.24,0,4.49.12,6.72,0a6.16,6.16,0,0,0,6-6.32v0a6,6,0,0,0-5.71-6.28h-.29c-4.47-.15-9-.15-13.43,0a6.25,6.25,0,0,0-6,6.32,6.4,6.4,0,0,0,6.1,6.31c2.21.12,4.46,0,6.7,0Zm0-38.23v-.06a59.73,59.73,0,0,0,7.08-.06,6.18,6.18,0,0,0,5.55-6.39,5.77,5.77,0,0,0-5.68-6.16,121.82,121.82,0,0,0-13.78,0,6.09,6.09,0,0,0-6,6.17V243a6.51,6.51,0,0,0,6.14,6.35c2.27.16,4.56,0,6.76,0Zm0-115.14h0c2.24,0,4.49.14,6.71,0a6,6,0,0,0,5.89-6,6.09,6.09,0,0,0-5.53-6.6h-.15a122.17,122.17,0,0,0-13.8,0,6.31,6.31,0,0,0-6,6.44c0,3.41,2.46,5.94,6.15,6.2,2.34.09,4.6,0,6.82,0Z"/><path class="cls-1" d="M198.47,172.75H125.13a31,31,0,0,1-4.82-.41,6.26,6.26,0,0,1-.3-12.26,13.66,13.66,0,0,1,3.31-.43H273c5.32,0,8.25,2.4,8.21,6.57a5.72,5.72,0,0,1-4.59,6,21.48,21.48,0,0,1-5.18.51Q235,172.77,198.47,172.75Z"/><path class="cls-1" d="M198.17,211.08H124.83c-6.49,0-9.86-2.34-9.72-6.73s3.38-6.42,9.66-6.42H271.82a18.47,18.47,0,0,1,4.8.54,6.24,6.24,0,0,1,0,12,19.21,19.21,0,0,1-4.78.54Q235,211.1,198.17,211.08Z"/><path class="cls-1" d="M198.22,249.39H124.47a24.45,24.45,0,0,1-3.73-.14,6.71,6.71,0,0,1-5.68-6.46,6.44,6.44,0,0,1,5.9-6.16,34,34,0,0,1,4.51-.24H271a35.27,35.27,0,0,1,4.48.2c3.61.48,5.68,2.78,5.72,6.19a6.31,6.31,0,0,1-5.56,6.44,24.49,24.49,0,0,1-3.73.13Z"/><path class="cls-1" d="M198.05,134.24H124.34c-6,0-9.16-2.15-9.24-6.3s3.2-6.56,9.43-6.56H272.69c5.7,0,8.59,2.24,8.53,6.55a6,6,0,0,1-5.36,6.13,33.5,33.5,0,0,1-4.48.18Z"/><path class="cls-1" d="M198.09,287.56H122.88c-5.71,0-9.31-4-7.15-8.35.93-1.88,3.43-3.13,5.45-4.27.95-.53,2.44-.13,3.69-.13H273.78c4.79.09,7.48,2.41,7.45,6.43s-2.77,6.32-7.56,6.32Z"/><path class="cls-1" d="M102.12,108.67h-18c-4.91-.06-7.32-2.45-7.34-7.38q-.07-18.15,0-36.29c0-4.94,2.35-7.35,7.33-7.39q18.35-.12,36.68,0c4.64,0,7.08,2.18,7.15,6.81q.28,18.69,0,37.42c-.07,4.73-2.64,6.78-7.52,6.82C114.34,108.71,108.23,108.67,102.12,108.67ZM89.89,70.61V95.73h25V70.61Z"/><path class="cls-1" d="M89.68,211.29a78,78,0,0,1-7.94-.71c-3.25-.62-4.91-3-4.86-6.17s1.76-5.73,5-6a110.69,110.69,0,0,1,15.56.05c3,.22,4.68,2.59,4.8,5.73.12,3.29-1.45,5.6-4.63,6.28A63.8,63.8,0,0,1,89.68,211.29Z"/><path class="cls-1" d="M89.6,159.67c2.12,0,4.25-.16,6.35,0,3.77.35,6.19,2.79,6.34,6.1.16,3.7-1.9,6.36-6,6.68a88.15,88.15,0,0,1-13.4,0c-3.88-.29-6.08-2.92-6.08-6.3s2.57-6.1,6.43-6.47C85.36,159.51,87.47,159.67,89.6,159.67Z"/><path class="cls-1" d="M89.64,287.53c-2.24,0-4.49.11-6.72,0a6.4,6.4,0,0,1-6.1-6.31,6.25,6.25,0,0,1,6.05-6.32c4.47-.16,9-.16,13.43,0a6,6,0,0,1,6,6c0,.1,0,.19,0,.29a6.16,6.16,0,0,1-6,6.36h0C94.13,287.65,91.88,287.53,89.64,287.53Z"/><path class="cls-1" d="M89.67,249.3c-2.24,0-4.49.16-6.71,0A6.51,6.51,0,0,1,76.82,243a6.09,6.09,0,0,1,5.86-6.32h.14a121.82,121.82,0,0,1,13.78,0c3.59.22,5.65,2.75,5.68,6.16a6.18,6.18,0,0,1-5.55,6.39,59.73,59.73,0,0,1-7.08.06Z"/><path class="cls-1" d="M89.69,134.16c-2.24,0-4.48.12-6.71,0-3.69-.26-6.11-2.79-6.15-6.2a6.31,6.31,0,0,1,6-6.44,122.17,122.17,0,0,1,13.8,0,6.09,6.09,0,0,1,5.69,6.46s0,.1,0,.15a6,6,0,0,1-5.89,6c-2.22.17-4.47,0-6.71,0Z"/></g></g></g></g></svg>