<svg xmlns="http://www.w3.org/2000/svg" viewBox="0 0 384 384"><defs><style>.cls-1{fill:none;}.cls-2{fill:#fff;}</style></defs><g id="Calque_2" data-name="Calque 2"><g id="Calque_1-2" data-name="Calque 1"><g id="Calque_2-2" data-name="Calque 2"><g id="Calque_1-2-2" data-name="Calque 1-2"><path class="cls-1" d="M0,0H384V384H0ZM262.85,240.53c12.25,0,23.47-.1,34.69,0a31.7,31.7,0,0,0,20.23-6.44c14.82-11.21,22-26.26,22.69-44.66.25-7,4.91-11.54,11.59-11.37,6.3.15,11.05,5.12,10.93,11.79a81,81,0,0,1-1,11.53q-5.49,33.42-33.4,52.75A34.45,34.45,0,0,0,315,273.25c-3.55,11.77-3.75,23.81-3.59,35.91,0,3,1.2,5.11,4.5,5.25,3,.13,4.46-1.73,4.56-5.49.18-6.22.17-12.47.66-18.68,1-12.84,5.09-23.38,16.49-31.72,23-16.86,34.09-40.64,34.37-69.25.1-10-7.25-18.73-16.63-20.07-10.91-1.54-20.42,4.16-23.26,14.23a43.4,43.4,0,0,0-1.1,8.87c-1.07,15.17-7.8,27.19-20.48,35.5a22.85,22.85,0,0,1-11.16,3.39c-11.09.44-22.21.33-33.3,0a20.26,20.26,0,0,1-9.19-2.5,41.83,41.83,0,0,1-20.27-26.61c-1.34-5.13-1.47-10.57-2.22-15.85A19.88,19.88,0,0,0,216,169c-10-.76-19.05,5-21.24,14.47-1.08,4.73-.71,9.88-.46,14.81.23,4.27,1.22,8.5,1.88,12.77h-8.72c.64-7.49,1.57-14.77,1.81-22.07A19.68,19.68,0,0,0,176,170a20.79,20.79,0,0,0-22.51,5.77c-4.15,4.71-4.93,10.38-5.26,16.35-.84,15-7.49,27-20,35.31a24.36,24.36,0,0,1-11.81,3.68c-11,.49-22,.36-32.92,0A21.09,21.09,0,0,1,74,228.58a41.54,41.54,0,0,1-20-26.36c-1.44-5.48-1.48-11.32-2.39-17-1.62-10-11.14-17-21.83-16.23-10.13.78-18.73,9.2-18.39,19.09a116.53,116.53,0,0,0,2.87,23.61c5,20.52,16.62,36.85,33.93,49a28.56,28.56,0,0,1,11.9,17.4c2.48,10.16,2.8,20.45,2.72,30.81,0,3.79,1.5,5.57,4.51,5.54s4.57-1.86,4.5-5.6c-.14-7-.19-14-.75-20.91-1.19-15.06-6.73-27.26-19.81-36.6-20.7-14.78-30.17-36.15-31-61.39a11.1,11.1,0,0,1,10.33-11.82l.56,0c6.73-.16,11.16,4.36,11.72,11.31a85.08,85.08,0,0,0,2.29,15.47c3.23,11.77,10.08,21.17,19.65,28.81,8.15,6.51,17.47,7.1,27.21,6.89,9.15-.2,18.3-.05,28.33-.05-9.15,5.56-11.08,13.5-10.23,22.65,2.26,24.24,12.54,44.17,32.32,58.61,6.86,5,11.69,10.88,12.63,19.32S156.46,358,157,366.39c.24,3.73,1.61,5.62,4.52,5.62s4.65-1.93,4.57-5.58c-.14-6.85-.11-13.73-.82-20.54-1.35-13-5.85-24.24-17.71-31.67-7.47-4.68-13-11.55-17.7-19a71.55,71.55,0,0,1-10.74-36.45c-.19-6.18,3.75-10.66,9.34-11s9.66,3.41,10.41,9.47c.17,1.36.19,2.74.3,4.11,1.33,17.07,9.17,30.41,23.72,39.32a29.62,29.62,0,0,0,13.37,3.81c9.83.56,19.7.2,29.56.15a28,28,0,0,0,5.93-.47c10.81-2.4,18.1-9.61,24.07-18.31,5.49-8,8-17,8.42-26.7.28-7.49,4.37-11.71,10.49-11.38s9.83,5.27,9.32,12.81c-.19,2.74-.42,5.48-.87,8.18-3.4,20-13.38,35.95-30.14,47.51a32.24,32.24,0,0,0-12.92,18.63c-2.85,10.2-3.22,20.63-3,31.12.08,4,1.56,6,4.57,6s4.45-1.93,4.55-5.94c.14-5.74.12-11.49.62-17.19,1-11.3,4.68-20.6,14.76-27.82,19.4-13.89,29.21-33.8,31.5-57.46C274,254.36,272.29,246.19,262.85,240.53Zm20.07-18.09c21.76,0,39.63-17.8,39.52-39.39a39.5,39.5,0,1,0-39.61,39.39Zm-182.68,0A39.35,39.35,0,1,0,60.81,183c-.2,21.52,17.63,39.38,39.43,39.44ZM66.54,115.76c-.42-.56-1-2.09-2.17-2.77Q53,106.17,41.43,99.69c-2.43-1.36-4.69-.55-6.08,1.81a4,4,0,0,0,.92,5.58,4.94,4.94,0,0,0,.49.3c7.69,4.61,15.42,9.15,23.29,13.43C63.19,122.51,66.69,120,66.54,115.76Zm254.13,6a39,39,0,0,0,4-1.7c4.55-2.57,9.07-5.2,13.59-7.82,2.7-1.56,5.46-3,8-4.73,2.09-1.39,2.95-3.47,1.67-5.84s-3.27-3.44-5.62-2.15c-8.05,4.45-16.06,9-23.88,13.85-1.11.69-1.77,3.4-1.39,4.85s2.4,2.41,3.63,3.55ZM121.74,62.68a35.37,35.37,0,0,0-1.44-3.75c-1.18-2.19-2.47-4.32-3.72-6.48-2.93-5.06-5.8-10.16-8.82-15.17-1.36-2.27-3.44-3.37-6-2-2.24,1.15-3.52,3.22-2.23,5.57,4.43,8.06,9,16.07,13.83,23.89.7,1.13,3.38,1.82,4.84,1.46S120.61,63.86,121.74,62.68Zm145.67,3.87c.58-.42,2.14-1,2.82-2.15q6.82-11.36,13.3-22.92c1.36-2.42.62-4.69-1.74-6.11a4,4,0,0,0-5.59.87,3.88,3.88,0,0,0-.3.48c-4.62,7.68-9.16,15.41-13.44,23.28C260.74,63.13,263.17,66.64,267.41,66.55ZM187.14,28.84V41.15c0,3.07,1.11,5.17,4.4,5.22s4.6-1.92,4.59-5v-25c0-3.12-1.36-5.11-4.59-5.05s-4.45,2.17-4.4,5.24C187.18,20.64,187.14,24.74,187.14,28.84Z"/><path class="cls-2" d="M262.85,240.53c9.44,5.66,11.15,13.83,10.26,23.07-2.29,23.66-12.1,43.57-31.5,57.46-10.08,7.22-13.78,16.52-14.76,27.82-.5,5.7-.48,11.45-.62,17.19-.1,4-1.53,6-4.55,5.94s-4.49-2-4.57-6c-.2-10.49.17-20.92,3-31.12A32.24,32.24,0,0,1,233,316.26c16.76-11.56,26.74-27.47,30.14-47.51.45-2.7.68-5.44.87-8.18.51-7.54-3.11-12.48-9.32-12.81s-10.21,3.89-10.49,11.38c-.37,9.71-2.93,18.7-8.42,26.7-6,8.7-13.26,15.91-24.07,18.31a28,28,0,0,1-5.93.47c-9.86.05-19.73.41-29.56-.15a29.62,29.62,0,0,1-13.37-3.81c-14.55-8.91-22.39-22.25-23.72-39.32-.11-1.37-.13-2.75-.3-4.11-.75-6.06-4.87-9.79-10.41-9.47s-9.53,4.8-9.34,11a71.55,71.55,0,0,0,10.74,36.45c4.68,7.48,10.23,14.35,17.7,19,11.86,7.43,16.36,18.68,17.71,31.67.71,6.81.68,13.69.82,20.54.08,3.65-1.67,5.57-4.57,5.58s-4.28-1.89-4.52-5.62c-.55-8.43-1-16.88-1.94-25.28s-5.77-14.31-12.63-19.32c-19.78-14.44-30.06-34.37-32.32-58.61-.85-9.15,1.08-17.09,10.23-22.65-10,0-19.18-.15-28.33,0-9.74.21-19.06-.38-27.21-6.89-9.57-7.64-16.42-17-19.65-28.81a85.08,85.08,0,0,1-2.29-15.47c-.56-7-5-11.47-11.72-11.31a11.09,11.09,0,0,0-10.91,11.28c0,.19,0,.37,0,.55.82,25.24,10.29,46.61,31,61.39,13.08,9.34,18.62,21.54,19.81,36.6.56,6.95.61,13.94.75,20.91.07,3.74-1.55,5.58-4.5,5.6s-4.53-1.75-4.51-5.54c.08-10.36-.24-20.65-2.72-30.81a28.56,28.56,0,0,0-11.9-17.4c-17.31-12.1-28.9-28.43-33.93-49a116.53,116.53,0,0,1-2.87-23.61c-.37-9.83,8.27-18.25,18.4-19.06,10.69-.82,20.21,6.19,21.83,16.23.91,5.64.95,11.48,2.39,17a41.54,41.54,0,0,0,20,26.36,21.18,21.18,0,0,0,9.52,2.64c11,.32,22,.45,32.92,0a24.36,24.36,0,0,0,11.81-3.68c12.54-8.28,19.19-20.29,20-35.31.33-6,1.11-11.64,5.26-16.35A20.79,20.79,0,0,1,176,170.12,19.69,19.69,0,0,1,189.3,189c-.24,7.3-1.17,14.58-1.81,22.07h8.72c-.66-4.27-1.65-8.5-1.88-12.77-.25-4.93-.62-10.08.46-14.81C197,174,206,168.27,216,169a19.88,19.88,0,0,1,18.35,17.23c.75,5.28.88,10.72,2.22,15.85a41.83,41.83,0,0,0,20.27,26.61,20.26,20.26,0,0,0,9.19,2.5c11.09.3,22.21.41,33.3,0a22.85,22.85,0,0,0,11.16-3.39c12.68-8.31,19.41-20.33,20.48-35.5a43.4,43.4,0,0,1,1.1-8.87c2.84-10.07,12.35-15.77,23.26-14.23,9.38,1.34,16.73,10,16.63,20.07-.28,28.61-11.33,52.39-34.37,69.25-11.4,8.34-15.49,18.88-16.49,31.72-.49,6.21-.48,12.46-.66,18.68-.1,3.76-1.56,5.62-4.56,5.49-3.3-.14-4.46-2.21-4.5-5.25-.16-12.1,0-24.14,3.59-35.91a34.4,34.4,0,0,1,13.56-19.08q27.84-19.32,33.4-52.75a81,81,0,0,0,1-11.53c.12-6.67-4.63-11.64-10.93-11.79-6.68-.17-11.34,4.38-11.59,11.37-.67,18.4-7.87,33.45-22.69,44.66a31.7,31.7,0,0,1-20.23,6.44C286.32,240.43,275.1,240.53,262.85,240.53Zm-8.17-2a10.75,10.75,0,0,0-1.16-1.08c-18.4-10.71-27.18-27-28.07-48-.3-7-4.9-11.51-11.61-11.37A10.79,10.79,0,0,0,203,188.8a9.39,9.39,0,0,0,0,1.06c.64,7.64,2.21,15.21,3.62,22.77a5.89,5.89,0,0,0,2.73,3.18c11.07,6.77,17.32,16.43,18.49,29.46,2,22.6-20,42.49-42.29,38.07-15.52-3.06-27.18-14.6-29.7-29.38-2.62-15.35,4.25-29.76,18-38.1a6.72,6.72,0,0,0,3-3.82c1.4-7.19,2.59-14.42,3.49-21.68a12.14,12.14,0,0,0-1.25-6.1,11.08,11.08,0,0,0-12.48-6c-5,1-8.53,5.44-8.73,11.11-.71,19.29-8.41,34.84-24.45,46-1.49,1-3.06,1.94-4.9,3.1,13.57,1.74,19.25,8.28,19.76,21.6a40.19,40.19,0,0,0,11.08,26.27c5.87,6.38,12.77,9.94,21.78,9.45,8.08-.44,16.23.24,24.3-.24a24,24,0,0,0,11.22-3.25c11.76-7.63,17.86-18.89,18.41-32.86.44-12.65,6.81-19.8,19.6-20.9Zm-62.59-18c-14.63-.33-27.17,11.42-27.48,25.76-.34,15.64,11.29,28.2,26.36,28.47,14.64.27,27.3-11.49,27.67-25.68.41-16-11-28.23-26.55-28.59Z"/><path class="cls-2" d="M282.92,222.44a39.35,39.35,0,1,1,39.52-39.39C322.55,204.64,304.68,222.45,282.92,222.44ZM313.07,183a30.13,30.13,0,1,0-29.94,30.33A30.13,30.13,0,0,0,313.07,183Z"/><path class="cls-2" d="M100.24,222.44c-21.8-.06-39.63-17.92-39.43-39.48a39.5,39.5,0,1,1,39.52,39.48Zm-30-39.33a24.87,24.87,0,1,0,0-.2v.2Z"/><path class="cls-2" d="M66.54,115.76c.15,4.26-3.35,6.75-6.49,5-7.87-4.28-15.6-8.82-23.29-13.43a4,4,0,0,1-1.71-5.39,4.94,4.94,0,0,1,.3-.49c1.39-2.36,3.65-3.17,6.08-1.81Q53,106.17,64.37,113C65.5,113.67,66.12,115.2,66.54,115.76Z"/><path class="cls-2" d="M320.67,121.77c-1.23-1.14-3.2-2.13-3.57-3.54s.28-4.16,1.39-4.85c7.82-4.85,15.83-9.4,23.88-13.85,2.35-1.29,4.42-.07,5.62,2.15s.42,4.45-1.67,5.84c-2.58,1.71-5.34,3.17-8,4.73-4.52,2.62-9,5.25-13.59,7.82A40,40,0,0,1,320.67,121.77Z"/><path class="cls-2" d="M121.74,62.68c-1.13,1.18-2.15,3.14-3.56,3.48s-4.14-.33-4.84-1.46c-4.84-7.82-9.4-15.83-13.83-23.89-1.29-2.35,0-4.42,2.23-5.57,2.58-1.33,4.66-.23,6,2,3,5,5.89,10.11,8.82,15.17,1.25,2.16,2.54,4.29,3.72,6.48A34.07,34.07,0,0,1,121.74,62.68Z"/><path class="cls-2" d="M267.41,66.55c-4.24.09-6.67-3.42-5-6.55,4.28-7.87,8.82-15.6,13.44-23.28a4,4,0,0,1,5.41-1.65,3.88,3.88,0,0,1,.48.3c2.36,1.42,3.1,3.69,1.74,6.11Q277,53,270.23,64.4C269.55,65.53,268,66.13,267.41,66.55Z"/><path class="cls-2" d="M187.14,28.84V16.53c0-3.07,1.14-5.18,4.4-5.24s4.6,1.93,4.59,5.05v25c0,3.11-1.33,5.09-4.59,5s-4.44-2.15-4.4-5.22C187.18,37.05,187.14,33,187.14,28.84Z"/><path class="cls-1" d="M254.68,238.54c-12.79,1.1-19.16,8.25-19.66,20.83-.55,14-6.65,25.23-18.41,32.86a24,24,0,0,1-11.22,3.25c-8.07.48-16.22-.2-24.3.24-9,.49-15.91-3.07-21.78-9.45A40.19,40.19,0,0,1,148.23,260c-.51-13.32-6.19-19.86-19.76-21.6,1.84-1.16,3.41-2.07,4.9-3.1,16-11.12,23.74-26.67,24.45-46,.2-5.67,3.69-10.08,8.73-11.11a11.08,11.08,0,0,1,12.48,6,12.14,12.14,0,0,1,1.25,6.1c-.9,7.26-2.09,14.49-3.49,21.68a6.72,6.72,0,0,1-3,3.82c-13.71,8.34-20.58,22.75-18,38.1,2.52,14.78,14.18,26.32,29.7,29.38,22.31,4.42,44.33-15.47,42.29-38.07-1.17-13-7.42-22.69-18.49-29.46a5.89,5.89,0,0,1-2.73-3.18c-1.41-7.56-3-15.13-3.62-22.77a10.81,10.81,0,0,1,9.8-11.72c.35,0,.7,0,1,0,6.71-.14,11.31,4.39,11.61,11.37.89,20.95,9.67,37.28,28.07,48A10.88,10.88,0,0,1,254.68,238.54Z"/><path class="cls-1" d="M192.09,220.49c15.57.36,27,12.6,26.55,28.55-.37,14.19-13,26-27.67,25.68-15.07-.27-26.7-12.83-26.36-28.47C164.92,231.91,177.46,220.16,192.09,220.49Z"/><path class="cls-1" d="M313.07,183a30.14,30.14,0,1,1,0-.14Z"/><path class="cls-1" d="M70.19,183.11a30.12,30.12,0,1,1,30,30.25A30.13,30.13,0,0,1,70.19,183.11Z"/></g></g></g></g></svg>