<svg xmlns="http://www.w3.org/2000/svg" viewBox="0 0 267.06 267.06"><defs><style>.cls-1{fill:none;}.cls-2{fill:#fff;}</style></defs><g id="Calque_2" data-name="Calque 2"><g id="Calque_1-2" data-name="Calque 1"><path class="cls-1" d="M0,0H267.06V267.06H0ZM63.14,266.25v.13c15.62,0,31.23.07,46.85-.1a7.75,7.75,0,0,0,5-2.25c16.45-17.28,32.74-34.71,49.14-52a8.73,8.73,0,0,0,2.55-6.52c-.09-10.67,0-21.34-.08-32a6.19,6.19,0,0,1,1.75-4.64c6.19-6.68,12.29-13.45,18.39-20.21,2.74-3,3-5.39.63-8.35-7.18-9.14-14.42-18.23-21.61-27.36a6.29,6.29,0,0,0-5.39-2.52c-27.24.06-54.48,0-81.72.1-1.65,0-2.39-.39-2.78-2.16-2.13-9.82-4.43-19.6-6.69-29.38-1.26-5.46-6.08-6.93-10.13-3q-27.9,26.94-55.76,53.91a6.44,6.44,0,0,0-1.89,6.83c1.78,6.87,3.27,13.82,5.27,20.63a100.42,100.42,0,0,1,3.86,30c-.33,23.85-.11,47.71-.1,71.57,0,5.7,1.71,7.41,7.46,7.41Zm175.72-97.1v-3.52q0-24.33,0-48.67c0-4.48-2.07-6.54-6.5-6.55h-31c-5.29,0-7.12,1.86-7.12,7.25v51c-.45.23-.6.37-.75.37-2.94,0-5.89,0-8.84.09-3.52.06-6,2.35-6,5.47s2.49,5.47,6,5.48q38,0,76,0c3.73,0,5.84-2.11,5.84-5.82q0-50.75,0-101.49a5.79,5.79,0,0,0-2.62-5.07c-2.14-1.48-4.18-3.12-6.41-4.44-1.66-1-2-2.21-2-4,.07-14,0-27.93,0-41.9,0-5.17-1.85-7-7.09-7H220.59c-8.63,0-9.53.9-9.53,9.52V30.55c-1.24-.81-2-1.25-2.66-1.73l-36-25.19c-4.29-3-5.69-3-10,0L87.32,55.11c-1.71,1.18-3.5,2.27-5.1,3.6a5.25,5.25,0,0,0-1,7A5.47,5.47,0,0,0,87.78,68a14,14,0,0,0,2.66-1.61Q127.76,40.78,165,15.14c1.65-1.13,2.73-1.33,4.5-.07q41.9,29.49,83.93,58.8a4.3,4.3,0,0,1,2.14,4q-.08,44.24,0,88.48c0,.84-.09,1.68-.14,2.62-.87.07-1.54.16-2.22.17ZM167,91.27a22.18,22.18,0,1,0-22.55-21.81A22.19,22.19,0,0,0,167,91.27Z"/><path class="cls-2" d="M63.14,266.25H17.85c-5.75,0-7.46-1.71-7.46-7.41,0-23.86-.23-47.72.1-71.57a100.42,100.42,0,0,0-3.86-30c-2-6.81-3.49-13.76-5.27-20.63a6.44,6.44,0,0,1,1.89-6.83Q31.17,102.9,59,75.92c4.05-3.91,8.87-2.44,10.13,3,2.26,9.78,4.56,19.56,6.69,29.38.39,1.77,1.13,2.16,2.78,2.16,27.24-.06,54.48,0,81.72-.1a6.29,6.29,0,0,1,5.39,2.52c7.19,9.13,14.43,18.22,21.61,27.36,2.32,3,2.11,5.32-.63,8.35-6.1,6.76-12.2,13.53-18.39,20.21a6.19,6.19,0,0,0-1.75,4.64c.08,10.67,0,21.34.08,32a8.73,8.73,0,0,1-2.55,6.52c-16.4,17.33-32.69,34.76-49.14,52a7.75,7.75,0,0,1-5,2.25c-15.62.17-31.23.1-46.85.1ZM21.55,177.09V255h83.18V177.09Zm8.09-11.22c.94.09,1.28.15,1.61.15q37.47,0,74.94-.06a5,5,0,0,0,3.26-1.58q18.45-20.16,36.75-40.44c.55-.6,1-1.27,1.74-2.15-.94-.08-1.52-.18-2.1-.18-23.07,0-46.15,0-69.22.06a5.76,5.76,0,0,0-3.52,1.63q-18,17.47-35.93,35.09C34.77,160.74,32.4,163.12,29.64,165.87Zm146.44-22-15.36-19.4c-14.35,15.8-28.43,31.33-42.61,46.95,6,5.73,11.76,11.28,17.63,16.93Q155.62,166.39,176.08,143.84ZM18.88,160.67c.91-.82,1.55-1.36,2.16-1.95C33.92,146.09,46.57,133.2,59.81,121c4.79-4.43,6.61-8.41,4.37-14.68-1.81-5.07-2.57-10.52-3.87-16.11-1,.9-1.7,1.51-2.37,2.16C44.23,105.6,30.63,119,16.73,132.06c-3.22,3-4.1,5.65-2.76,9.82C15.92,147.93,17.22,154.18,18.88,160.67Zm97.28,86c1.13-1.21,1.76-1.92,2.41-2.61,10.94-11.61,21.75-23.33,32.88-34.74,3.08-3.16,4.62-6.23,4.27-10.68-.4-4.95-.09-9.95-.09-14.93l-.87-.55a16.18,16.18,0,0,1-1.38,2.13q-6.42,7.17-12.9,14.27c-3.52,3.86-6.39,3.88-10.09.11q-6-6.12-12-12.27c-.63-.63-1.32-1.22-2.23-2.06Z"/><path class="cls-2" d="M238.86,169.15h14.35c.68,0,1.35-.1,2.22-.17,0-.94.14-1.78.14-2.62q0-44.25,0-88.48a4.3,4.3,0,0,0-2.14-4q-42-29.33-83.93-58.8c-1.77-1.26-2.85-1.06-4.5.07q-37.26,25.68-74.6,51.23A14,14,0,0,1,87.78,68a5.47,5.47,0,0,1-6.61-2.23,5.25,5.25,0,0,1,1-7c1.6-1.33,3.39-2.42,5.1-3.6L162.37,3.6c4.33-3,5.73-3,10,0l36,25.19c.69.48,1.42.92,2.66,1.73V19.86c0-8.62.9-9.52,9.53-9.52h27.84c5.24,0,7.09,1.83,7.09,7,0,14,0,27.94,0,41.9,0,1.83.38,3.06,2,4,2.23,1.32,4.27,3,6.41,4.44a5.79,5.79,0,0,1,2.62,5.07q0,50.74,0,101.49c0,3.71-2.11,5.81-5.84,5.82q-38,0-76,0c-3.52,0-6-2.35-6-5.48s2.47-5.41,6-5.47c2.95,0,5.9,0,8.84-.09.15,0,.3-.14.75-.37v-51c0-5.39,1.83-7.25,7.12-7.25h31c4.43,0,6.5,2.07,6.5,6.55q0,24.35,0,48.67ZM227.48,169a10.14,10.14,0,0,0,.22-1.4c0-14.73,0-29.47,0-44.2,0-1.7-.74-2-2.2-2-5.81,0-11.62.12-17.42,0-2.22,0-2.75.69-2.74,2.81.08,14,0,28.08.05,42.12,0,.85.07,1.69.12,2.7Zm16.7-115.11V21.53h-22c0,5.39,0,10.58,0,15.77a2.47,2.47,0,0,0,.81,1.74C229.94,43.93,236.88,48.77,244.18,53.88Z"/><path class="cls-2" d="M167,91.27A22.18,22.18,0,1,1,188.86,68.5,22.21,22.21,0,0,1,167,91.27ZM155.58,69.18a11.07,11.07,0,0,0,22.13,0,11.07,11.07,0,1,0-22.13,0Z"/><path class="cls-1" d="M21.55,177.09h83.18V255H21.55Z"/><path class="cls-1" d="M29.64,165.87c2.76-2.75,5.13-5.13,7.53-7.48Q55.11,140.83,73.1,123.3a5.76,5.76,0,0,1,3.52-1.63c23.07-.09,46.15-.07,69.22-.06.58,0,1.16.1,2.1.18-.71.88-1.19,1.55-1.74,2.15q-18.34,20.25-36.75,40.44a5,5,0,0,1-3.26,1.58q-37.47.14-74.94.06C30.92,166,30.58,166,29.64,165.87Z"/><path class="cls-1" d="M176.08,143.84q-20.46,22.54-40.34,44.48c-5.87-5.65-11.65-11.2-17.63-16.93,14.18-15.62,28.26-31.15,42.61-46.95Z"/><path class="cls-1" d="M18.88,160.67c-1.66-6.49-3-12.74-4.91-18.79-1.34-4.17-.46-6.79,2.76-9.82C30.63,119,44.23,105.6,57.94,92.33c.67-.65,1.39-1.26,2.37-2.16,1.3,5.59,2.06,11,3.87,16.11,2.24,6.27.42,10.25-4.37,14.68C46.57,133.2,33.92,146.09,21,158.72,20.43,159.31,19.79,159.85,18.88,160.67Z"/><path class="cls-1" d="M116.16,246.69V185.36c.91.84,1.6,1.43,2.23,2.06q6,6.14,12,12.27c3.7,3.77,6.57,3.75,10.09-.11q6.48-7.11,12.9-14.27a16.18,16.18,0,0,0,1.38-2.13l.87.55c0,5-.31,10,.09,14.93.35,4.45-1.19,7.52-4.27,10.68-11.13,11.41-21.94,23.13-32.88,34.74C117.92,244.77,117.29,245.48,116.16,246.69Z"/><path class="cls-1" d="M227.48,169H205.55c-.05-1-.12-1.85-.12-2.7,0-14,0-28.08-.05-42.12,0-2.12.52-2.86,2.74-2.81,5.8.15,11.61.08,17.42,0,1.46,0,2.2.3,2.2,2-.05,14.73,0,29.47,0,44.2A10.14,10.14,0,0,1,227.48,169Z"/><path class="cls-1" d="M244.18,53.88c-7.3-5.11-14.24-10-21.13-14.84a2.47,2.47,0,0,1-.81-1.74c-.06-5.19,0-10.38,0-15.77h22Z"/><path class="cls-1" d="M155.58,69.18a11.07,11.07,0,1,1,11.08,11A11,11,0,0,1,155.58,69.18Z"/></g></g></svg>