<svg xmlns="http://www.w3.org/2000/svg" viewBox="0 0 383.25 347.34"><defs><style>.cls-1{fill:#fff;}</style></defs><g id="Calque_2" data-name="Calque 2"><g id="Calque_1-2" data-name="Calque 1"><path class="cls-1" d="M383.25,333.89c-2.59,6.39-6.45,11.46-13.65,13a23.42,23.42,0,0,1-4.81.46q-173.23,0-346.47,0C7.4,347.33,0,339.93,0,329.07Q0,245.64,0,162.2c0-10.84,7.43-18.33,18.28-18.34q33.68-.06,67.35,0h5v-4.17c0-23.32.28-46.65-.12-70-.19-11.39,8.18-20.53,19.44-19.55,3.58.31,7.21.05,11.34.05V45.69c0-10.11,0-20.21,0-30.31,0-9.08,6.17-15.26,15.22-15.3,9.36,0,18.72.18,28.06-.06,10.79-.29,19.74,3.31,26.84,11.78,2.14-1.91,4.13-3.91,6.34-5.62A28.5,28.5,0,0,1,215.42.1q15.9-.11,31.8,0a14.46,14.46,0,0,1,14.72,14.67c.08,10.35,0,20.71,0,31.06V50.2h12.23c11.11,0,18.42,7.31,18.43,18.51q0,35.36,0,70.72v4.41H297c21.2,0,42.41.33,63.6-.13,10.81-.24,18.64,3.1,22.66,13.53Zm-262-271.72h-9c-8.54,0-9.55,1-9.55,9.74V226.07q0,50.7,0,101.4c0,6.09,1.72,7.81,7.77,7.81q17.4,0,34.8,0c1.07,0,2.14-.16,3.5-.27v-4.72c0-21.7-.24-43.41.21-65.1.54-26.32,26.91-45.85,52.54-39.38,19.86,5,32.7,21.41,32.84,42.3s0,41.66,0,62.49v4.69h37.11c7.63,0,9-1.32,9-8.89q0-127.77,0-255.56c0-1.37.34-3-.3-4-1.11-1.74-2.71-4.12-4.36-4.34-4.48-.6-9.1-.21-13.88-.21,0,10.5,0,20.58,0,30.67,0,9.72-5.83,15.72-15.5,15.73q-54.83.07-109.64,0c-9.71,0-15.52-6-15.54-15.68C121.27,82.89,121.28,72.8,121.28,62.17ZM90.65,335.29V156.19c-1.18-.09-1.79-.18-2.4-.18Q53.63,156,19,156c-5.36,0-7,2-7,7.79V327.36c0,6.19,1.76,7.92,8.07,7.93H90.65Zm201.87,0h70.14c7,0,8.62-1.56,8.62-8.51V164.35c0-6.76-1.58-8.35-8.38-8.35H296.66c-1.22,0-2.44.1-4.14.18ZM160.9,335h61.45v-3.25c0-21.45.05-42.9,0-64.35a30.71,30.71,0,1,0-61.41,0c-.08,18.33,0,36.67,0,55ZM185.64,96.62V92.84q0-30.3,0-60.59c0-12.46-7.56-20.07-20-20.12-8.86,0-17.71,0-26.56,0-5.38,0-5.8.41-5.8,5.67V91.1c0,.87-.31,2,.11,2.56.82,1.15,2.05,2.82,3.13,2.84C152.74,96.68,168.93,96.62,185.64,96.62Zm12,0c16.71,0,32.9,0,49.09,0,3,0,3.2-2.18,3.2-4.42,0-25.18,0-50.36,0-75.54,0-3.42-1.43-4.61-4.73-4.57-9.23.12-18.45,0-27.68.05-12.39,0-19.9,7.65-19.92,20.14q0,20.56,0,41.14Z"/><path class="cls-1" d="M191.41,209.14c-4,0-8,.07-12,0-7.93-.18-12.81-4.9-13-12.82-.17-8.22-.19-16.45,0-24.67.2-7.82,5.32-12.64,13.18-12.72s16-.08,23.93,0,12.93,4.89,13.14,12.74c.22,8.22.19,16.45,0,24.67-.18,8-5,12.63-13,12.8C199.64,209.21,195.52,209.14,191.41,209.14Zm12.9-37.63H179v25.15h25.33Z"/><path class="cls-1" d="M112.19,184.13c0-4.23-.06-8.47,0-12.71.14-7.22,4.89-12.3,12.12-12.47q12.88-.33,25.78,0c7.1.18,12.11,5.43,12.22,12.52q.18,12.71,0,25.41c-.12,6.8-4.94,11.93-11.69,12.12q-13.45.39-26.91,0c-6.86-.2-11.37-5.2-11.51-12.17C112.13,192.61,112.2,188.37,112.19,184.13Zm12.29-12.71v25.41h25.38V171.42Z"/><path class="cls-1" d="M271,184.38c0,4.36.11,8.73,0,13.08-.2,6.31-4.7,11.28-11,11.49q-13.81.45-27.65,0c-6.54-.19-11.31-5.34-11.43-12q-.24-12.9,0-25.79c.13-7,5.3-12.14,12.44-12.29,8.47-.18,17-.2,25.42,0,7.38.17,12.12,5.25,12.25,12.73.08,4.24,0,8.48,0,12.71ZM258.8,196.82V171.54H233.34v25.28Z"/><path class="cls-1" d="M76.35,215.65c0,4.36.07,8.72,0,13.08a11.57,11.57,0,0,1-11.27,11.63q-13.64.34-27.28,0a11.73,11.73,0,0,1-11.5-11.87q-.21-13.08,0-26.16a12.14,12.14,0,0,1,12.28-12q12.7-.24,25.42,0c7.34.13,12.3,5.31,12.37,12.62C76.38,207.18,76.35,211.42,76.35,215.65ZM38.56,228.12H64.17V202.86H38.56Z"/><path class="cls-1" d="M76.35,275.81c0,4.36.06,8.72,0,13.08a12,12,0,0,1-11.82,12c-8.72.16-17.45.14-26.17,0A12.08,12.08,0,0,1,26.27,288.7q-.18-12.9,0-25.79c.1-7.07,5.33-12.06,12.46-12.09q12.72-.06,25.42,0c7.14,0,12.11,5.07,12.19,12.28C76.39,267.33,76.35,271.57,76.35,275.81ZM64.24,263H38.62v25.54H64.24Z"/><path class="cls-1" d="M306.89,215.46c0-4.24,0-8.48,0-12.71.09-7,4.85-12.2,11.81-12.39,8.72-.24,17.45-.22,26.17,0,7,.16,12.05,5.49,12.12,12.57q.12,12.53,0,25.05c-.07,7.18-5,12.32-12.11,12.46q-13.08.26-26.16,0c-7.07-.15-11.73-5.15-11.82-12.25C306.85,223.93,306.89,219.69,306.89,215.46Zm37.7,12.74V202.91H319.07V228.2Z"/><path class="cls-1" d="M332.32,250.81c4.24,0,8.48-.05,12.71,0a11.86,11.86,0,0,1,11.91,11.5q.31,13.46,0,26.91a12,12,0,0,1-11.85,11.64c-8.72.15-17.44.13-26.16,0a11.89,11.89,0,0,1-12-12.15q-.12-12.9,0-25.79c0-7.12,5.14-12.07,12.33-12.12C323.6,250.78,328,250.81,332.32,250.81Zm12.41,12.24H319.15v25.44h25.58Z"/><path class="cls-1" d="M178.21,54.06c-.11,5.1-3.84,8.57-7,7-7.87-3.77-16.11-2.34-24.23-2.68-4-.16-6.42-2.65-6.21-6.33.18-3,1.92-5.42,4.69-5.42,8,0,16.1.45,24.13,1A10.47,10.47,0,0,1,175,50,18.48,18.48,0,0,1,178.21,54.06Z"/><path class="cls-1" d="M156.33,70.45c5.53-.32,11.82,0,17.69,3,3.88,2,5.25,5.14,3.63,8.52-1.51,3.14-4.66,3.6-8.63,2.7-5.25-1.2-10.69-1.56-16.07-2.13-2.09-.23-4.23,0-6.34-.09-3.59-.19-5.86-2.53-5.88-5.9a5.84,5.84,0,0,1,5.78-6C149.49,70.33,152.49,70.45,156.33,70.45Z"/><path class="cls-1" d="M178.19,31.24c-.05,3.77-3.71,7.26-6.92,5.75-7.77-3.63-15.87-2.23-23.87-2.55-4.49-.18-7.58-3.17-6.48-7,.53-1.84,2.62-4.56,4.07-4.59,9.23-.26,18.64-1.93,27.63,1.86C175.61,25.93,178.28,27.4,178.19,31.24Z"/><path class="cls-1" d="M228.78,57.49C223.51,58.63,218.2,59.64,213,61c-3.29.83-5.66-.1-7.27-2.9s-.9-6.39,2.07-7.74a40.53,40.53,0,0,1,12-3.68c5.4-.62,10.94-.22,16.42-.15,3.85,0,6.28,2.35,6.35,5.82.08,3.66-2.38,6-6.43,6.11-2.37.06-4.73,0-7.1,0Z"/><path class="cls-1" d="M228.22,70.45c2.74,0,5.49-.09,8.22,0,3.72.16,6.13,2.69,6.07,6.16s-2.37,5.7-6,5.8c-4.22.13-8.48-.19-12.69.13a39.77,39.77,0,0,0-9.39,1.92c-4.14,1.38-7.44.64-8.93-2.6-1.6-3.49-.29-7.12,4.15-8.48,6-1.82,12.2-2.72,18.32-4Z"/><path class="cls-1" d="M227.62,22.42c3,0,6-.09,9,0,3.59.14,5.89,2.5,5.93,5.84a5.86,5.86,0,0,1-5.76,6.09c-3.35.18-6.75-.23-10.07.13a110.74,110.74,0,0,0-13.41,2.27c-3.33.77-6.59-.28-7.83-3.17s-.12-6.15,3-7.93C212.83,23.14,217.14,22.4,227.62,22.42Z"/></g></g></svg>