<svg xmlns="http://www.w3.org/2000/svg" viewBox="0 0 311.93 283.65"><defs><style>.cls-1{fill:#fff;}</style></defs><g id="Calque_2" data-name="Calque 2"><g id="Calque_1-2" data-name="Calque 1"><path class="cls-1" d="M264.41,154.41c1.7-1.95,3.24-4,5.09-5.77,3.83-3.6,8.66-3.66,12.43,0q13.71,13.44,27.14,27.14c4.19,4.3,3.71,9-1.05,13.77q-28,28.08-56.08,56.12-16.68,16.66-33.35,33.35c-6.1,6.09-10.21,6.06-16.39-.12l-23.78-23.78c-5.63-5.65-5.63-9.89.13-15.57a41.62,41.62,0,0,1,4.11-3.19c-9.31-9.29-17.92-17.86-26.42-26.33L129.7,236.85a50.34,50.34,0,0,1,5.23,4.29c3.69,3.85,3.84,8.62.13,12.42q-13.53,13.86-27.4,27.4c-3.81,3.72-8.43,3.49-12.44-.11-.64-.56-1.23-1.19-1.83-1.79L4.73,190.38c-6.28-6.29-6.3-10.16-.08-16.39q12-12,24-24c5.41-5.38,9.73-5.4,15.07,0,1.46,1.46,2.72,3.11,4.61,5.3,2.16-2.38,3.81-4.3,5.57-6.1s3.54-3.34,6.64-6.25c-1.72-1-3.3-1.55-4.4-2.61-5.76-5.6-11.44-11.31-17.09-17-12-12.11-7.61-30.15,8.55-35.63.44-.15.85-.39,1.53-.71a20.87,20.87,0,0,1,.49-19c3.29-6.23,8.69-9.64,15.44-11C61,37.75,76.05,25.88,91.92,30c2.34-9.89,8.2-16.26,18.59-17.79s16.92,5.1,23.38,12.15c5.63-5.66,11-11.1,16.45-16.5C160.76-2.58,172.7-2.6,183.06,7.73c.26.26.55.5.78.78,3.36,4.27,6.93,6.38,13.15,5.47,10-1.46,18.44,5.34,21.25,15.13.23.8.51,1.59.76,2.37,18-4.18,31,10.42,26.91,27,6.67,1.44,12.09,4.81,15.39,11s3.12,12.61.53,19.16l2.57.9c14.74,5.31,19.07,23.2,8.21,34.54-6.3,6.59-12.9,12.89-19.09,19ZM123.56,228.64a18.34,18.34,0,0,1,2.07-3c13.32-13.38,26.72-26.68,40-40.09a30.37,30.37,0,0,1,18.59-9.21q7.62-.9,15.25-1.65c5.21-.51,10-1.86,13.86-5.72q25.69-25.74,51.4-51.45c4.61-4.63,4.93-10.69,1.08-15.12s-10-4.9-15.37-.87c-3,2.22-5.87,2.21-7.8,0s-1.52-5,1.1-7.75c2.29-2.36,4.74-4.58,6.91-7a10.77,10.77,0,0,0-.19-14.88c-4.21-4.17-10.56-4.23-15.13,0-2.33,2.14-4.48,4.48-6.75,6.69-2.93,2.86-5.73,3.17-8,.94s-2.13-5.2.89-8.26c3.67-3.74,7.43-7.39,11.1-11.13,4.86-5,5.11-11.54.67-15.93s-10.9-4.1-15.92.86c-4,3.93-7.88,8-11.92,11.85-2.23,2.14-4.79,2.37-7.19.21-2.14-1.92-2.11-5.13.09-7.49s4.86-4.49,6.87-7.06a16.48,16.48,0,0,0,3.34-6.67A10,10,0,0,0,202.81,25a10.67,10.67,0,0,0-12.45,2.17c-8.67,8.55-17.19,17.26-25.91,25.77a5.57,5.57,0,0,0-1.74,5.74,20.68,20.68,0,0,1-17,24.12c-1.63.28-3.28.46-5,.7,0,6.34-1.92,11.69-6.3,16.05s-9.81,6.07-16.11,6c0,6.31-1.75,11.75-6.09,16.15s-10,6.27-16.06,6.39c-2.16,16.77-10.36,23.35-26.6,21.61a3.21,3.21,0,0,0-2.27.51c-4,3.72-7.83,7.53-11.31,10.92Zm2.58,18.83q-44.81-44.83-89.88-89.92L11.77,182.17l89.71,89.75Zm84,24.51,89.7-89.69-24.33-24.38-89.72,89.78Zm-20.91-44.65,66.27-66.28-9.61-10c-.91.84-1.82,1.62-2.66,2.46-7.24,7.22-14.5,14.42-21.69,21.69A29.8,29.8,0,0,1,203,184.48c-4.84.51-9.66,1.69-14.49,1.66-11.94-.06-17.55,9-24.71,15.82ZM119.37,96c5.06-.76,8.91-3.42,10.43-7.84,1.6-4.67.2-8.54-3.2-11.93C117.37,67,108.24,57.73,98.93,48.63c-2.57-2.5-4-6-7.67-7.63-5.56-2.48-11.08-1.9-14.47,2.51s-2.93,10.24,1.35,14.57C89.35,69.41,100.59,80.72,112,91.84,114,93.74,116.9,94.62,119.37,96Zm-51-29.69c-4.86,1-8.17,2.92-10,7a10.19,10.19,0,0,0,2.18,12.11Q74.92,99.94,89.5,114.28c4.64,4.57,11.14,4.57,15.36.34s4.3-10.91-.37-15.65c-9.4-9.53-18.82-19-28.46-28.34C74,68.66,71,67.71,68.4,66.29Zm63.21-25.38c2.45,2.19,4.69,4.05,6.77,6.08,5.86,5.72,11.76,5.81,17.51.09q12-12,24-24c.65-.65,1.19-1.42,2-2.39-2.46-2.34-4.75-4.51-7-6.7-5.07-4.87-11.15-5-16.17-.08s-10,10-15,14.94ZM42,108A57.94,57.94,0,0,0,45.49,115,35,35,0,0,0,50,119.68c5.86,5.85,11.62,11.81,17.63,17.51a10.49,10.49,0,0,0,14.57.07c4-3.81,4.92-10.21,1.18-14.19-7.66-8.17-15.63-16-23.74-23.78-3.21-3-7.41-3-11.3-1S42.65,103.39,42,108ZM152.57,61c-7,1.25-13.44.34-18.72-4.37-4.36-3.88-8.43-8.09-12.5-12.28-2.31-2.37-2.28-5.06,0-7.47,1.65-1.74,3.52-3.28,5.8-5.37-2.57-2.38-4.61-4.27-6.66-6.14-4.53-4.15-11-4.17-15.14,0a10.77,10.77,0,0,0,0,15.14c2.66,2.84,5.48,5.53,8.24,8.28,7,7,13.9,14,20.94,20.9,3.71,3.63,8.07,4.26,12.4,2.12C151,69.68,153,66.05,152.57,61Z"/></g></g></svg>