<svg xmlns="http://www.w3.org/2000/svg" viewBox="0 0 238.44 170.61"><defs><style>.cls-1{fill:#fff;}</style></defs><g id="Calque_2" data-name="Calque 2"><g id="Calque_1-2" data-name="Calque 1"><g id="Calque_2-2" data-name="Calque 2"><g id="Calque_1-2-2" data-name="Calque 1-2"><path class="cls-1" d="M238.44,170.61H136.29V68h50.85C175.76,45.23,164.56,22.8,153.23.13c1,0,1.68-.11,2.35-.11,15.58,0,31.06.08,46.58,0a3.15,3.15,0,0,1,3.3,2.12Q221.21,33.73,237,65.3c.42.81.94,1.54,1.42,2.31Z"/><path class="cls-1" d="M50.85,68.13C39.45,45.31,28.22,22.84,16.93.23A4.88,4.88,0,0,1,18.05.1C34.2,0,50.35.12,66.5,0,68,0,68.45.81,69,1.9q16.2,32.28,32.32,64.61a9.22,9.22,0,0,1,.94,4v99.94H0V68.13Z"/></g></g></g></g></svg>