<?xml version="1.0" encoding="utf-8"?>
<!-- Generator: Adobe Illustrator 25.0.1, SVG Export Plug-In . SVG Version: 6.00 Build 0)  -->
<svg version="1.1" id="Calque_1" xmlns="http://www.w3.org/2000/svg" xmlns:xlink="http://www.w3.org/1999/xlink" x="0px" y="0px"
	 viewBox="0 0 238.4 170.6" style="enable-background:new 0 0 238.4 170.6;" xml:space="preserve">
<style type="text/css">
	.st0{fill:#FFFFFF;}
</style>
<g id="Calque_2_1_">
	<g id="Calque_1-2">
		<path class="st0" d="M0,0l102.2,0v102.6H51.3c11.4,22.8,22.6,45.2,33.9,67.9c-1,0.1-1.7,0.1-2.4,0.1c-15.6,0-31.1-0.1-46.6,0
			c-1.5,0.1-2.8-0.7-3.3-2.1c-10.5-21.1-21-42.1-31.6-63.2C1,104.5,0.5,103.8,0,103L0,0z"/>
		<path class="st0" d="M187.6,102.5c11.4,22.8,22.6,45.3,33.9,67.9c-0.7,0.1-0.9,0.1-1.1,0.1c-16.1,0.1-32.3,0-48.4,0.1
			c-1.5,0-1.9-0.8-2.5-1.9c-10.8-21.5-21.6-43.1-32.3-64.6c-0.6-1.2-0.9-2.6-0.9-4c0-32.5,0-64.9,0-97.4V0.2h102.3v102.3H187.6z"/>
	</g>
</g>
</svg>
