<svg xmlns="http://www.w3.org/2000/svg" viewBox="0 0 402.95 617.95"><defs><style>.cls-1{fill:#fff;}</style></defs><g id="Calque_2" data-name="Calque 2"><g id="Calque_1-2" data-name="Calque 1"><path class="cls-1" d="M402.85,262.58c-8.56-6.29-17.52-9.17-26.57-4.94a37.33,37.33,0,0,0-14,11.91c-2.68,3.8-5,5-9.23,5q-32.16-.22-64.32,0c-18.46.1-32-7.8-41.39-23.76q-15.51-26.43-32-52.25c-1.8-2.83-5.73-5.76-8.86-6-5.27-.37-7.75,6.26-4.63,11.51,5,8.36,10.5,16.41,15.28,24.88a13.22,13.22,0,0,1,1.28,8.71c-9.73,42.41-38.94,63.78-79.37,72.67-8.25,1.81-16.68,2.79-26.53,4.4,1.18-3.62,1.89-6,2.73-8.36,17.58-48.65,35.32-97.24,52.7-146,6.35-17.82,17.63-29.87,36.85-32,17.94-2,31.84,6.84,41.67,20.89,17.3,24.72,33.94,49.92,50.16,75.36,8.44,13.23,19.18,19.55,35.09,18.79,17.5-.83,35.08-.35,52.62-.13C396.66,243.51,403.91,250.77,402.85,262.58Z"/><path class="cls-1" d="M102.62,329.59c35.19-1.91,66.63-8.69,94.56-29.71-5.43,26.63,2.06,47.69,19.74,66,17.41,18,33.91,37,51,55.32,7.7,8.26,11.61,17.67,11.58,29-.11,38.73,0,77.46-.08,116.19,0,14.9-6.46,24.9-17.45,28.19-16.05,4.8-35.62-9.59-35.57-26.12.06-23.87-.08-47.74.19-71.61.17-14.34-4.64-26.53-13.86-37.35q-52.1-61.17-104-122.51C107.21,335.21,105.73,333.37,102.62,329.59Z"/><path class="cls-1" d="M47.24,152l97.67,28.09c-.85,2.88-1.45,5.37-2.31,7.76Q120.06,250.2,97.42,312.52a41,41,0,0,1-4,8.51c-3.88,5.89-8.63,7.94-16.11,5.35-22.47-7.76-45.2-14.77-67.86-22-9.73-3.09-11-5.27-7.93-14.56q21.6-65.34,43.19-130.69C45.41,156.9,46.28,154.68,47.24,152Z"/><path class="cls-1" d="M102.37,352.34l25.36,29.75c9.32,10.94,18.78,21.76,27.82,32.93a11.47,11.47,0,0,1,2.08,8.26c-2.13,11.7-4.78,23.31-7.49,34.89a18.07,18.07,0,0,1-3.26,6.4q-45.75,61.09-91.69,122.07c-12,15.79-33.8,15.37-44.82-.39C3.06,575.8,4,561.58,13,549.56q30.34-40.68,60.8-81.3c27.49-36.77,27-31.76,26.9-80,0-11.69,0-23.37,0-35.06Z"/><path class="cls-1" d="M263.37,0a50.54,50.54,0,1,1-50.2,50.61C213.12,22.32,235.15.1,263.37,0Z"/><path class="cls-1" d="M396.05,444.84q0,79.67.07,159.33c0,6-1.58,10.67-7.3,13-6.63,2.65-13.53-1.32-14.95-8.49a45.28,45.28,0,0,1-.54-8.72q0-155.67,0-311.34a53.4,53.4,0,0,1,.34-8c1-6.77,5.63-10.38,12.16-9.88,5.93.45,10.05,4.71,10.15,11.19.19,11.93.07,23.87.08,35.81Z"/><path class="cls-1" d="M52,138.27c.59-2.31,1-4.14,1.52-5.93q5.76-18.77,11.57-37.54C67.48,87,71.85,84.33,79.9,86.37c21.15,5.38,42.31,10.73,63.33,16.56,14.6,4,21.17,15.77,18.31,31.07-.49,2.62-.58,5.4-1.53,7.84-3.08,7.89-6.48,15.66-10.15,24.42Z"/><path class="cls-1" d="M396,229.76l-21.62-1.52a13.78,13.78,0,0,1-.95-3.59c-.07-18-.24-36.06,0-54.08.16-10.43,8.36-16.41,16.24-11.85,2.77,1.6,6,5.4,6,8.27C396.18,187.87,396,208.78,396,229.76Z"/></g></g></svg>