<svg xmlns="http://www.w3.org/2000/svg" viewBox="0 0 383.68 383.26"><defs><style>.cls-1{fill:#fff;}</style></defs><g id="Calque_2" data-name="Calque 2"><g id="Calque_1-2" data-name="Calque 1"><path class="cls-1" d="M0,258.24c1.37-7.21,2.17-14.58,4.21-21.58,10.92-37.54,34.74-63.52,71.05-78a5.91,5.91,0,0,0,4.1-5q18-85.09,93.22-128.91C201,8.33,231.88.42,264.69,0c25-.32,43.27,18,43,43.09a194.1,194.1,0,0,1-9.12,56.64c-.26.82-.49,1.64-.83,2.78,40.66,12.89,68.55,38.94,80.95,80,8.56,28.37,6,56.33-7,83-27.05,55.23-89,76.72-140.1,59.52l2.16-6.88c16.8,5.09,33.72,6.76,51.12,3.73.58-4.83.42-8.69-4.6-11.69-9-5.37-17.41-11.63-26.2-17.34a9,9,0,0,0-5.15-1.19c-5.59.39-11.15,1.28-16.75,1.63-2.47.16-3.25,1.12-3.89,3.39q-14.9,53-64.78,76.41a108.31,108.31,0,0,1-35.57,9.54,20.37,20.37,0,0,0-2.86.65h-18a15.9,15.9,0,0,0-2.49-.62A115.7,115.7,0,0,1,4.43,298.5c-2-7.28-3-14.86-4.43-22.3ZM222.91,20.73,293.42,91.3c1.3-5.73,2.45-11.17,3.78-16.57.61-2.5-.21-4.15-2-5.91q-28.12-28-56.06-56.12a6.8,6.8,0,0,0-6.93-2.11,182.53,182.53,0,0,0-57.51,21.34c-38.65,22.56-65.52,55-81,96.94-.91,2.46-.57,4,1.35,5.83,4.89,4.61,9.46,9.59,14.4,14.15a8.85,8.85,0,0,0,5.44,2.25,120.47,120.47,0,0,1,33.94,4.82c5.2,1.55,10.24,3.59,15,5.28,29.07-48.06,71.1-68.29,126.63-60.62L216.88,27ZM119.83,261.65l103.88,16.74a25.85,25.85,0,0,0,.58-3.08q2.9-47-28.8-81.84a4.5,4.5,0,0,0-3.83-1c-18.45,5.69-35.28,14.36-49.29,27.88A75.77,75.77,0,0,0,119.83,261.65Zm-.72,7.48a20.12,20.12,0,0,0-.45,2.42,73.78,73.78,0,0,0,6,31.69c9.67,22.91,26,40.51,45,55.91,1.87,1.51,3.09.63,4.61-.34a108.52,108.52,0,0,0,37.83-41.06,103.22,103.22,0,0,0,10.83-31.9Zm-35.26-5.68c-.34,2.39-.67,4.57-1,6.75-4.4,32.45-4.43,64.82,1.7,97.1.61,3.18,2,4.57,5,5.3A109.84,109.84,0,0,0,156.41,368c2.56-1,5-2.24,7.37-3.3-7-6.78-13.93-12.92-20.23-19.62-13.37-14.24-24.31-30.14-29.17-49.32-2.27-8.94-2.86-18.31-4.29-28.08Zm28.3-3c9.42-40.76,38.53-61.49,75.24-74.84-.94-.86-1.46-1.39-2-1.86A108.59,108.59,0,0,0,118,158.63c-2.84-.08-4.12.87-5.21,3.43a438.72,438.72,0,0,0-25.09,79.65c-1,4.69-1.78,9.42-2.69,14.32Zm172.1-97.24V164c5.48,0,11,.14,16.45-.1a5.82,5.82,0,0,0,4.09-2.14q7.9-12.22,15.32-24.79a6.52,6.52,0,0,0,.43-4.76,135.82,135.82,0,0,0-4.92-12.9,6.48,6.48,0,0,0-2.91-3.07,108.09,108.09,0,0,0-67.53-7.72c-1.94.39-2.59,1.28-2.79,3.2-.67,6.19-1.4,12.38-2.4,18.52a6.54,6.54,0,0,0,1.69,6.05c7.08,7.89,14.08,15.85,20.92,23.93a7.55,7.55,0,0,0,6.7,3C274.27,163,279.26,163.18,284.25,163.18Zm24.83,80c2.83-10.2,5.65-20.13,8.28-30.11a7.74,7.74,0,0,0-.5-4.32c-4.24-11.57-8.62-23.09-12.84-34.67a3.47,3.47,0,0,0-3.78-2.68c-6.11,0-12.22-.31-18.33-.39-5.21-.08-10.41,0-15.84,0-3.4,12-6.83,24.11-10.19,36.2a5.3,5.3,0,0,0,.15,2.87c3.12,9.33,6.26,18.64,9.53,27.91a3.69,3.69,0,0,0,2.41,2.17C281.5,241.28,295.05,242.21,309.08,243.22Zm35.23,44.27.32.65c1.55-.72,3.54-1.06,4.57-2.23a104.45,104.45,0,0,0,24.55-50,5.57,5.57,0,0,0-.71-3.77Q365,219.75,356.57,207.6a4.16,4.16,0,0,0-3.55-1.26c-8.45,2.14-16.81,4.61-25.25,6.76a4.37,4.37,0,0,0-3.6,3.62c-2.53,9.5-5.24,19-7.8,28.45a10.69,10.69,0,0,0-.38,4.41q2.83,16.75,6,33.46a3.37,3.37,0,0,0,2.29,2.1C330.92,286.05,337.62,286.74,344.31,287.49ZM55.61,258.9c-.29.94-.47,1.41-.57,1.9C50,284.2,40.89,305.86,27,325.46c-.63.88-.36,3.08.34,4.1a104.32,104.32,0,0,0,24.11,24.83,101.49,101.49,0,0,0,25.83,14.09c-6.84-35.61-6.1-70.8-1-106.23Zm50.17-99.49c-1.11,0-1.6,0-2.09,0a105.28,105.28,0,0,0-46.6,16.83,3.94,3.94,0,0,0-1.31,3.28,211.38,211.38,0,0,1,3.29,50.59c-.35,7-1.3,14.06-2,21.42l20.47,3.26A441.31,441.31,0,0,1,105.78,159.41Zm161.1,88.35c-.32.43-.55.61-.6.83-2.94,11.71-5.92,23.41-8.69,35.16-.23,1,.73,2.76,1.67,3.41,8.91,6.17,18,12.13,26.91,18.25,1.6,1.09,2.67,1.13,4.24-.08,7.43-5.68,15-11.15,22.37-16.91a5.47,5.47,0,0,0,1.6-4.27c-.56-4.82-1.55-9.59-2.41-14.37-1.14-6.32-2.32-12.64-3.49-19ZM235.11,140c-9.47,6.77-18.7,13.31-27.82,20a3.89,3.89,0,0,0-1.25,3.1q2.55,17.37,5.46,34.69a3.8,3.8,0,0,0,2.39,2.58q16.31,2.17,32.66,3.87a3.48,3.48,0,0,0,2.76-1.9c3.25-10.85,6.33-21.74,9.35-32.66a3.79,3.79,0,0,0-.4-3C250.66,157.73,242.94,149,235.11,140ZM324,206.42c9.46-2.57,18.57-5,27.62-7.61.81-.24,1.66-2,1.67-3q.18-15.87,0-31.75a4.64,4.64,0,0,0-1.19-3.22c-8.27-6.77-16.65-13.39-25.25-20.25-5.56,9-11,17.8-16.31,26.62a3.59,3.59,0,0,0-.08,2.74C314.9,181.91,319.38,193.89,324,206.42Zm-93.38,79.47c5.91-.58,11.26-.95,16.54-1.75a4.65,4.65,0,0,0,3-2.89q4.56-17.31,8.68-34.76a10.58,10.58,0,0,0-.35-5.43c-2.67-8.29-5.72-16.46-8.25-24.78-1-3.27-2.45-4.72-5.92-4.69-2.84,0-5.68-.69-8.52-1-6.37-.75-12.74-1.46-19.74-2.26C230,232.76,234.71,258.33,230.65,285.89Zm-182-103.74C28.49,198.81,15.73,219,10,244l39.4,6.32A207.59,207.59,0,0,0,48.63,182.15Zm-40,69.18a109.1,109.1,0,0,0,12.71,69c13.52-19.18,22-39.88,26.68-62.61ZM247.33,8.77l52,52c.29-6.31.74-12.86.83-19.42a32.5,32.5,0,0,0-8.25-22.29C282.33,8,262.44,3.63,247.33,8.77ZM234.87,111.29a110.62,110.62,0,0,0-53.16,36.88c5.91,2.13,11.34,4.25,16.89,6a6.1,6.1,0,0,0,4.65-.67c9-6.24,17.92-12.65,26.76-19.13a6,6,0,0,0,2.27-3.49C233.27,124.61,234,118.32,234.87,111.29Zm106,183.33c-6.84-.74-12.49-1.52-18.17-1.87a8.46,8.46,0,0,0-5.05,1.59c-7.18,5.15-14.21,10.53-21.3,15.81-4.64,3.47-4.83,4-3.16,10.1A108.4,108.4,0,0,0,340.84,294.62Zm20-133.46c0,8.82.51,17.67-.14,26.44-.67,9,1.41,16.54,7.19,23.38,2.73,3.24,4.82,7,7.78,11.42C376.85,199.75,372.23,179.71,360.84,161.16ZM171.51,164l30.79,24.13c-1.05-7-2.31-14.31-3.21-21.69-.4-3.28-1.68-5.1-5-5.86a75.59,75.59,0,0,1-8.1-2.84c-9.83-3.53-9.83-3.53-14.42,5.92C171.45,164,171.41,164.37,171.51,164Zm185.62-8.87a89.53,89.53,0,0,0-31.28-31c1,3.32,1.79,7.12,4.1,9.12C338.74,140.84,348,147.88,357.13,155.13ZM89.82,141.25,86.63,154.8,101,152Z"/><path class="cls-1" d="M132.82,132l-5.52-6.16,12.8-11.71L130.74,106l5.84-5.8c2.34,2.72,4.85,5.64,7.2,8.39L153.92,98.1l-8.64-6.86,6.17-6.14,7.42,8.46,10.24-10.43-9-7,6.64-5.92,6.88,9c4-4.13,7-7.23,10.67-11l-9.13-7.32,6.37-6c2.38,3,4.83,6.11,7.51,9.52,4.69-5,8.52-9,12.6-13.37l5.3,6.3L194.4,68.68c3.51,3.06,6.39,5.57,9.62,8.37l-6.43,6-7.5-8.89L179.89,84.4,189.1,92l-6.41,6.23-7.78-8.87L164.8,99.41l9.29,7.58-6.48,5.63-7.09-8.27-10.23,10.47,8.83,7.25-5.9,5.33-7.95-9.09Z"/></g></g></svg>